<?xml version='1.0' encoding='utf-8'?>
<svg xmlns="http://www.w3.org/2000/svg" id="Layer_1" data-name="Layer 1" viewBox="0 0 222.82 455.81"><defs><style>.cls-1{fill:#0b1a29;}.cls-2{fill:#232323;}.cls-3{fill:#050606;}.cls-4{fill:#6d6e71;}.cls-5{fill:#171717;}.cls-6{fill:none;stroke:#1e1e1e;stroke-miterlimit:10;}.cls-7{fill:#101010;}.cls-8{fill:#091432;}.cls-9{fill:#0f1016;}.cls-10{fill:#262666;}</style></defs><path class="cls-1" d="M222.1,130.12V34a34,34,0,0,0-34-34H34.73a34,34,0,0,0-34,34V84.71H.48a.47.47,0,0,0-.48.47V98.4a.47.47,0,0,0,.48.48H.72v23.26h0a.71.71,0,0,0-.72.71v26.92a.71.71,0,0,0,.72.71h0v8.73a.72.72,0,0,0-.72.72v26.91a.72.72,0,0,0,.72.72V421.8a34,34,0,0,0,34,34H188.09a34,34,0,0,0,34-34V181.14a.71.71,0,0,0,.72-.71v-49.6A.71.71,0,0,0,222.1,130.12ZM219.27,419a34,34,0,0,1-34,34l-147.89-.21A33.67,33.67,0,0,1,3.55,419V36.85a34,34,0,0,1,34-34H185.25a34,34,0,0,1,34,34Z"/><path class="cls-2" d="M125,17.11h-1.4V17h.92v-.33h-.92v-.1h.92v-.33h-.92v-.09h.92v-.33h-.92v-.09h1.09v-.33h-1.09v-.1h1.09V15h-1.09V14.9h1.09v-.33h-1.09v-.09h1.09v-.33h-1.09v-.09h1.09v-.34h-1.09v-.57h-.33v.57h-.31v-.57h-.33v.57h-.32v-.57H122v.57h-.31v-.57h-.33v.57H121v-.57h-.33v.57h-.31v-.57H120v.57h-.31v-.57h-.33v.57h-.32v-.57h-.33v.57h-.31v-.57h-.33v.57h-.31v-.57h-.33v.57h-.32v-.57h-.33v.57h-.31v-.57h-.33v.57h-.31v-.57h-.33v.57h-.32v-.57h-.33v.57h-.31v-.57h-.33v.57h-.32v-.57h-.33v.57h-.31v-.57h-.33v.57h-.31v-.57h-.33v.57H112v-.57h-.33v.57h-.31v-.57H111v.57h-.31v-.57h-.33v.57h-.32v-.57h-.33v.57h-.31v-.57h-.33v.57h-.31v-.57h-.34v.57h-.31v-.57h-.33v.57h-.31v-.57h-.33v.57h-.32v-.57h-.33v.57h-.31v-.57h-.33v.57h-.31v-.57h-.33v.57h-.32v-.57h-.33v.57h-.31v-.57h-.33v.57h-.31v-.57h-.33v.57H103v-.57h-.33v.57h-.31v-.57H102v.57h-.32v-.57h-.33v.57H101v-.57h-.33v.57h-.31v-.57h-.33v.57h-.32v-.57h-.33v.57h-.31v-.57h-.33v.57h-.31v-.57h-.33v.57h-.32v-.57h-.33v.57h-.31v-.57h-.33v.57h-.31v-.57h-.33v.57h-.32v-.57h-.33v.57H92.87v.34h2.69v.09H92.87v.33h2.69v.09H92.87v.33h2.69V15H92.87v.33h2.69v.1H92.87v.33h2.69v.09H92.71v.33h2.85v.09H92.71v.33h2.85v.1H92.71V17h2.85v.09H93.18v.33h2.38v.33h.33v-.33h.32v.33h.33v-.33h.31v.33h.33v-.33h.31v.33h.33v-.33h.32v.33h.33v-.33h.31v.33h.33v-.33h.31v.33h.33v-.33h.32v.33h.33v-.33h.31v.33H101v-.33h.31v.33h.33v-.33H102v.33h.33v-.33h.31v.33H103v-.33h.32v.33h.33v-.33h.31v.33h.33v-.33h.31v.33h.33v-.33h.32v.33h.33v-.33h.31v.33h.33v-.33h.31v.33h.33v-.33h.32v.33h.33v-.33h.31v.33h.33v-.33h.31v.33h.34v-.33h.31v.33h.33v-.33h.31v.33h.33v-.33h.32v.33h.33v-.33H111v.33h.33v-.33h.31v.33H112v-.33h.32v.33h.33v-.33h.31v.33h.33v-.33h.31v.33h.33v-.33h.32v.33h.33v-.33h.31v.33h.33v-.33h.32v.33h.33v-.33h.31v.33h.33v-.33h.31v.33h.33v-.33h.32v.33h.33v-.33h.31v.33h.33v-.33h.31v.33h.33v-.33h.32v.33h.33v-.33H120v.33h.33v-.33h.31v.33H121v-.33h.32v.33h.33v-.33H122v.33h.33v-.33h.32v.33h.33v-.33h.31v.33h.33v-.33H125Zm-1.73-.42h-.31v-.1h.31Zm-2.58-1.27h-.31v-.1h.31Zm.33-.1h.32v.1H121Zm-1,.1h-.31v-.1H120Zm-.64,0h-.32v-.1h.32Zm-.65,0h-.31v-.1h.31Zm-.64,0h-.31v-.1h.31Zm-.64,0h-.32v-.1h.32Zm-.65,0h-.31v-.1h.31Zm-.64,0h-.31v-.1h.31Zm-.64,0h-.32v-.1h.32Zm-.65,0h-.31v-.1h.31Zm-.64,0h-.32v-.1h.32Zm-.65,0h-.31v-.1h.31Zm-.64,0h-.31v-.1h.31Zm-.64,0H112v-.1h.32Zm-.65,0h-.31v-.1h.31Zm-.64,0h-.31v-.1H111Zm-.64,0h-.32v-.1h.32Zm-.65,0h-.31v-.1h.31Zm-.64,0h-.31v-.1h.31Zm-.65,0h-.31v-.1h.31Zm-.64,0h-.31v-.1h.31Zm-.64,0h-.32v-.1h.32Zm-.65,0h-.31v-.1h.31Zm-.64,0h-.31v-.1h.31Zm-.64,0h-.32v-.1h.32Zm-.65,0h-.31v-.1h.31Zm-.64,0h-.31v-.1h.31Zm-.64,0H103v-.1h.32Zm-.65,0h-.31v-.1h.31Zm-.64,0h-.32v-.1H102Zm-.65,0H101v-.1h.31Zm-.64,0h-.31v-.1h.31Zm-.64,0h-.32v-.1h.32Zm-.65,0h-.31v-.1h.31Zm-.64,0h-.31v-.1h.31Zm-.64,0h-.32v-.1h.32Zm0,.33v.09h-.32v-.09Zm.33,0h.31v.09h-.31Zm.64,0h.31v.09h-.31Zm.64,0h.32v.09h-.32Zm.65,0h.31v.09h-.31Zm.64,0h.31v.09H101Zm.64,0H102v.09h-.32Zm.65,0h.31v.09h-.31Zm.64,0h.32v.09H103Zm.65,0h.31v.09h-.31Zm.64,0h.31v.09h-.31Zm.64,0h.32v.09h-.32Zm.65,0h.31v.09h-.31Zm.64,0h.31v.09h-.31Zm.64,0h.32v.09h-.32Zm.65,0h.31v.09h-.31Zm.64,0h.31v.09h-.31Zm.65,0h.31v.09h-.31Zm.64,0h.31v.09h-.31Zm.64,0h.32v.09h-.32Zm.65,0H111v.09h-.31Zm.64,0h.31v.09h-.31Zm.64,0h.32v.09H112Zm.65,0h.31v.09h-.31Zm.64,0h.31v.09h-.31Zm.64,0h.32v.09h-.32Zm.65,0h.31v.09h-.31Zm.64,0h.32v.09h-.32Zm.65,0h.31v.09h-.31Zm.64,0h.31v.09h-.31Zm.64,0h.32v.09h-.32Zm.65,0h.31v.09h-.31Zm.64,0h.31v.09h-.31Zm.64,0h.32v.09h-.32Zm.65,0H120v.09h-.31Zm.64,0h.31v.09h-.31Zm.64,0h.32v.09H121Zm.65,0H122v.09h-.31Zm0-.33v-.1H122v.1Zm0-.43V14.9H122V15Zm-.33,0H121V14.9h.32Zm-.65,0h-.31V14.9h.31ZM120,15h-.31V14.9H120Zm-.64,0h-.32V14.9h.32Zm-.65,0h-.31V14.9h.31Zm-.64,0h-.31V14.9h.31Zm-.64,0h-.32V14.9h.32Zm-.65,0h-.31V14.9h.31Zm-.64,0h-.31V14.9h.31Zm-.64,0h-.32V14.9h.32Zm-.65,0h-.31V14.9h.31Zm-.64,0h-.32V14.9h.32Zm-.65,0h-.31V14.9h.31Zm-.64,0h-.31V14.9h.31Zm-.64,0H112V14.9h.32Zm-.65,0h-.31V14.9h.31ZM111,15h-.31V14.9H111Zm-.64,0h-.32V14.9h.32Zm-.65,0h-.31V14.9h.31Zm-.64,0h-.31V14.9h.31Zm-.65,0h-.31V14.9h.31Zm-.64,0h-.31V14.9h.31Zm-.64,0h-.32V14.9h.32Zm-.65,0h-.31V14.9h.31Zm-.64,0h-.31V14.9h.31Zm-.64,0h-.32V14.9h.32Zm-.65,0h-.31V14.9h.31Zm-.64,0h-.31V14.9h.31Zm-.64,0H103V14.9h.32Zm-.65,0h-.31V14.9h.31ZM102,15h-.32V14.9H102Zm-.65,0H101V14.9h.31Zm-.64,0h-.31V14.9h.31Zm-.64,0h-.32V14.9h.32Zm-.65,0h-.31V14.9h.31Zm-.64,0h-.31V14.9h.31Zm-.64,0h-.32V14.9h.32Zm-.65,0h-.31V14.9h.31Zm0,.33v.1h-.31v-.1Zm0,.43v.09h-.31v-.09Zm0,.42v.09h-.31v-.09Zm.33,0h.32v.09h-.32Zm.65,0h.31v.09h-.31Zm.64,0h.31v.09h-.31Zm.64,0h.32v.09h-.32Zm.65,0h.31v.09h-.31Zm.64,0h.31v.09H101Zm.64,0H102v.09h-.32Zm.65,0h.31v.09h-.31Zm.64,0h.32v.09H103Zm.65,0h.31v.09h-.31Zm.64,0h.31v.09h-.31Zm.64,0h.32v.09h-.32Zm.65,0h.31v.09h-.31Zm.64,0h.31v.09h-.31Zm.64,0h.32v.09h-.32Zm.65,0h.31v.09h-.31Zm.64,0h.31v.09h-.31Zm.65,0h.31v.09h-.31Zm.64,0h.31v.09h-.31Zm.64,0h.32v.09h-.32Zm.65,0H111v.09h-.31Zm.64,0h.31v.09h-.31Zm.64,0h.32v.09H112Zm.65,0h.31v.09h-.31Zm.64,0h.31v.09h-.31Zm.64,0h.32v.09h-.32Zm.65,0h.31v.09h-.31Zm.64,0h.32v.09h-.32Zm.65,0h.31v.09h-.31Zm.64,0h.31v.09h-.31Zm.64,0h.32v.09h-.32Zm.65,0h.31v.09h-.31Zm.64,0h.31v.09h-.31Zm.64,0h.32v.09h-.32Zm.65,0H120v.09h-.31Zm.64,0h.31v.09h-.31Zm.64,0h.32v.09H121Zm.65,0H122v.09h-.31Zm.64,0h.32v.09h-.32Zm0-.33v-.09h.32v.09Zm0-.42v-.1h.32v.1Zm0-.43V14.9h.32V15Zm0-.42v-.09h.32v.09Zm-.33,0h-.31v-.09H122Zm-.64,0H121v-.09h.32Zm-.65,0h-.31v-.09h.31Zm-.64,0h-.31v-.09H120Zm-.64,0h-.32v-.09h.32Zm-.65,0h-.31v-.09h.31Zm-.64,0h-.31v-.09h.31Zm-.64,0h-.32v-.09h.32Zm-.65,0h-.31v-.09h.31Zm-.64,0h-.31v-.09h.31Zm-.64,0h-.32v-.09h.32Zm-.65,0h-.31v-.09h.31Zm-.64,0h-.32v-.09h.32Zm-.65,0h-.31v-.09h.31Zm-.64,0h-.31v-.09h.31Zm-.64,0H112v-.09h.32Zm-.65,0h-.31v-.09h.31Zm-.64,0h-.31v-.09H111Zm-.64,0h-.32v-.09h.32Zm-.65,0h-.31v-.09h.31Zm-.64,0h-.31v-.09h.31Zm-.65,0h-.31v-.09h.31Zm-.64,0h-.31v-.09h.31Zm-.64,0h-.32v-.09h.32Zm-.65,0h-.31v-.09h.31Zm-.64,0h-.31v-.09h.31Zm-.64,0h-.32v-.09h.32Zm-.65,0h-.31v-.09h.31Zm-.64,0h-.31v-.09h.31Zm-.64,0H103v-.09h.32Zm-.65,0h-.31v-.09h.31Zm-.64,0h-.32v-.09H102Zm-.65,0H101v-.09h.31Zm-.64,0h-.31v-.09h.31Zm-.64,0h-.32v-.09h.32Zm-.65,0h-.31v-.09h.31Zm-.64,0h-.31v-.09h.31Zm-.64,0h-.32v-.09h.32Zm-.65,0h-.31v-.09h.31Zm-.64,0h-.31v-.09h.31Zm0,.33V15h-.31V14.9Zm0,.42v.1h-.31v-.1Zm0,.43v.09h-.31v-.09Zm0,.42v.09h-.31v-.09Zm0,.42v.1h-.31v-.1Zm.33,0h.31v.1h-.31Zm.64,0h.32v.1h-.32Zm.65,0h.31v.1h-.31Zm.64,0h.31v.1h-.31Zm.64,0h.32v.1h-.32Zm.65,0h.31v.1h-.31Zm.64,0h.31v.1H101Zm.64,0H102v.1h-.32Zm.65,0h.31v.1h-.31Zm.64,0h.32v.1H103Zm.65,0h.31v.1h-.31Zm.64,0h.31v.1h-.31Zm.64,0h.32v.1h-.32Zm.65,0h.31v.1h-.31Zm.64,0h.31v.1h-.31Zm.64,0h.32v.1h-.32Zm.65,0h.31v.1h-.31Zm.64,0h.31v.1h-.31Zm.65,0h.31v.1h-.31Zm.64,0h.31v.1h-.31Zm.64,0h.32v.1h-.32Zm.65,0H111v.1h-.31Zm.64,0h.31v.1h-.31Zm.64,0h.32v.1H112Zm.65,0h.31v.1h-.31Zm.64,0h.31v.1h-.31Zm.64,0h.32v.1h-.32Zm.65,0h.31v.1h-.31Zm.64,0h.32v.1h-.32Zm.65,0h.31v.1h-.31Zm.64,0h.31v.1h-.31Zm.64,0h.32v.1h-.32Zm.65,0h.31v.1h-.31Zm.64,0h.31v.1h-.31Zm.64,0h.32v.1h-.32Zm.65,0H120v.1h-.31Zm.64,0h.31v.1h-.31Zm.64,0h.32v.1H121Zm.65,0H122v.1h-.31Zm.64,0h.32v.1h-.32Zm1-.33h-.31v-.09h.31Zm0-.42h-.31v-.09h.31Zm0-.42h-.31v-.1h.31Zm0-.43h-.31V14.9h.31Zm0-.42h-.31v-.09h.31Zm0-.51v.09h-.31v-.09Zm-.64,0v.09h-.32v-.09Zm-.65,0v.09h-.31v-.09Zm-.64,0v.09H121v-.09Zm-.65,0v.09h-.31v-.09Zm-.64,0v.09h-.31v-.09Zm-.64,0v.09h-.32v-.09Zm-.65,0v.09h-.31v-.09Zm-.64,0v.09h-.31v-.09Zm-.64,0v.09h-.32v-.09Zm-.65,0v.09h-.31v-.09Zm-.64,0v.09h-.31v-.09Zm-.64,0v.09h-.32v-.09Zm-.65,0v.09h-.31v-.09Zm-.64,0v.09h-.32v-.09Zm-.65,0v.09h-.31v-.09Zm-.64,0v.09h-.31v-.09Zm-.64,0v.09H112v-.09Zm-.65,0v.09h-.31v-.09Zm-.64,0v.09h-.31v-.09Zm-.64,0v.09h-.32v-.09Zm-.65,0v.09h-.31v-.09Zm-.64,0v.09h-.31v-.09Zm-.65,0v.09h-.31v-.09Zm-.64,0v.09h-.31v-.09Zm-.64,0v.09h-.32v-.09Zm-.65,0v.09h-.31v-.09Zm-.64,0v.09h-.31v-.09Zm-.64,0v.09h-.32v-.09Zm-.65,0v.09h-.31v-.09Zm-.64,0v.09h-.31v-.09Zm-.64,0v.09H103v-.09Zm-.65,0v.09h-.31v-.09Zm-.64,0v.09h-.32v-.09Zm-.65,0v.09H101v-.09Zm-.64,0v.09h-.31v-.09Zm-.64,0v.09h-.32v-.09Zm-.65,0v.09h-.31v-.09Zm-.64,0v.09h-.31v-.09Zm-.64,0v.09h-.32v-.09Zm-.65,0v.09h-.31v-.09Zm-.64,0v.09h-.31v-.09Zm-1,0h.32v.09h-.32Zm0,.42h.32v.09h-.32Zm0,.42h.32V15h-.32Zm0,.42h.32v.1h-.32Zm0,.43h.32v.09h-.32Zm0,.42h.32v.09h-.32Zm0,.42h.32v.1h-.32Zm0,.52V17h.32v.09Zm.65,0V17h.31v.09Zm.64,0V17h.31v.09Zm.64,0V17h.32v.09Zm.65,0V17h.31v.09Zm.64,0V17h.31v.09Zm.64,0V17h.32v.09Zm.65,0V17h.31v.09Zm.64,0V17h.31v.09Zm.64,0V17H102v.09Zm.65,0V17h.31v.09Zm.64,0V17h.32v.09Zm.65,0V17h.31v.09Zm.64,0V17h.31v.09Zm.64,0V17h.32v.09Zm.65,0V17h.31v.09Zm.64,0V17h.31v.09Zm.64,0V17h.32v.09Zm.65,0V17h.31v.09Zm.64,0V17h.31v.09Zm.65,0V17h.31v.09Zm.64,0V17h.31v.09Zm.64,0V17h.32v.09Zm.65,0V17H111v.09Zm.64,0V17h.31v.09Zm.64,0V17h.32v.09Zm.65,0V17h.31v.09Zm.64,0V17h.31v.09Zm.64,0V17h.32v.09Zm.65,0V17h.31v.09Zm.64,0V17h.32v.09Zm.65,0V17h.31v.09Zm.64,0V17h.31v.09Zm.64,0V17h.32v.09Zm.65,0V17h.31v.09Zm.64,0V17h.31v.09Zm.64,0V17h.32v.09Zm.65,0V17H120v.09Zm.64,0V17h.31v.09Zm.64,0V17h.32v.09Zm.65,0V17H122v.09Zm.64,0V17h.32v.09Zm.65,0V17h.31v.09Z"/><path id="Inside_Glass" data-name="Inside Glass" class="cls-3" d="M185.4,2.72H37.72A34.1,34.1,0,0,0,3.51,36.82V418.93a33.73,33.73,0,0,0,34.15,34l147.77,0a33.65,33.65,0,0,0,33.94-34.05V36.82A34.14,34.14,0,0,0,185.4,2.72ZM101.22,14h20a1.43,1.43,0,1,1,0,2.86h-20a1.43,1.43,0,1,1,0-2.86ZM213.7,418.93a28.35,28.35,0,0,1-28.35,28.35H37.66A28.34,28.34,0,0,1,9.32,418.93V36.82A28.34,28.34,0,0,1,37.66,8.48h20a2.83,2.83,0,0,1,2.83,2.83v8.34a5.67,5.67,0,0,0,5.67,5.67h90.71a5.67,5.67,0,0,0,5.67-5.67v-8a3.13,3.13,0,0,1,3.13-3.13h19.69A28.35,28.35,0,0,1,213.7,36.82Z"/><g id="Front_CAmera" data-name="Front CAmera"><circle class="cls-4" cx="130.53" cy="15.46" r="2.83"/><circle class="cls-5" cx="130.53" cy="15.46" r="2.04"/><circle class="cls-6" cx="130.53" cy="15.46" r="1.81"/><circle class="cls-7" cx="130.53" cy="15.46" r="1.59"/><circle cx="130.53" cy="15.46" r="1.36"/><circle class="cls-8" cx="130.53" cy="15.46" r="0.91"/></g><g id="Sensors"><circle class="cls-9" cx="70.38" cy="15.46" r="4.25"/><circle class="cls-9" cx="152.7" cy="15.46" r="4.25"/><circle class="cls-9" cx="86.07" cy="15.46" r="4.25"/></g><polygon class="cls-10" points="3.48 44.02 0.72 44.02 0.72 41.18 3.48 41.19 3.48 44.02"/><rect class="cls-10" x="0.72" y="407.74" width="2.77" height="2.83"/><polygon class="cls-10" points="48.76 455.81 45.93 455.81 45.97 452.95 48.8 452.95 48.76 455.81"/><rect class="cls-10" x="219.37" y="407.74" width="2.74" height="2.83"/><rect class="cls-10" x="219.37" y="41.18" width="2.74" height="2.83"/><rect class="cls-10" x="173.85" width="2.83" height="2.83"/></svg>