<svg id="Shadow_Light" data-name="Shadow Light" xmlns="http://www.w3.org/2000/svg" xmlns:xlink="http://www.w3.org/1999/xlink" width="2000" height="1421" viewBox="0 0 2000 1421">
  <defs>
    <style>
      .cls-1 {
        fill: #66beb7;
      }

      .cls-1, .cls-10, .cls-11, .cls-12, .cls-13, .cls-14, .cls-15, .cls-16, .cls-17, .cls-18, .cls-19, .cls-2, .cls-20, .cls-21, .cls-22, .cls-23, .cls-24, .cls-25, .cls-26, .cls-27, .cls-28, .cls-3, .cls-30, .cls-31, .cls-32, .cls-33, .cls-34, .cls-35, .cls-36, .cls-4, .cls-5, .cls-6, .cls-7, .cls-8, .cls-9 {
        fill-rule: evenodd;
      }

      .cls-2 {
        fill: #ffead3;
      }

      .cls-3 {
        fill: #cdc4b9;
      }

      .cls-17, .cls-25, .cls-3, .cls-4, .cls-7 {
        stroke: #326081;
        stroke-linejoin: round;
        stroke-width: 5px;
      }

      .cls-4 {
        fill: url(#linear-gradient);
      }

      .cls-5 {
        fill: #bdb4a9;
      }

      .cls-6 {
        fill: #e3e3e3;
      }

      .cls-7 {
        fill: url(#linear-gradient-2);
      }

      .cls-8 {
        fill: #ff7bbf;
      }

      .cls-9 {
        fill: #f991c6;
      }

      .cls-10 {
        fill: #083555;
      }

      .cls-11 {
        fill: #9f9384;
      }

      .cls-12, .cls-27, .cls-29 {
        fill: #fff;
      }

      .cls-13 {
        fill: #77b0d8;
      }

      .cls-14 {
        fill: #4c9993;
      }

      .cls-15 {
        fill: #afa496;
      }

      .cls-16 {
        fill: #fafafa;
      }

      .cls-17 {
        fill: #737373;
      }

      .cls-18 {
        fill: #a0a0a0;
      }

      .cls-19 {
        fill: #b8b8b8;
      }

      .cls-20 {
        fill: #8b8b8b;
        opacity: 0.4;
      }

      .cls-21 {
        fill: #5e5e5e;
      }

      .cls-21, .cls-22, .cls-34 {
        opacity: 0.5;
      }

      .cls-22 {
        fill: #a3a3a3;
      }

      .cls-23 {
        fill: #7f7f7f;
      }

      .cls-24 {
        fill: #5a5a5a;
      }

      .cls-25 {
        fill: #a6a6a6;
      }

      .cls-26 {
        fill: #ababab;
      }

      .cls-27 {
        opacity: 0.3;
      }

      .cls-28 {
        fill: #002e3c;
      }

      .cls-31 {
        fill: #252525;
      }

      .cls-32 {
        fill: #b2b2b2;
      }

      .cls-33 {
        fill: #ff7ba3;
      }

      .cls-34 {
        fill: #ffafc7;
      }

      .cls-35 {
        fill: red;
        stroke: #000;
        stroke-width: 1.96px;
      }

      .cls-36 {
        fill: #326081;
      }
    </style>
    <linearGradient id="linear-gradient" x1="1307.139" y1="1349.53" x2="1307.139" y2="415.594" gradientUnits="userSpaceOnUse">
      <stop offset="0" stop-color="#f5efef" stop-opacity="0.996"/>
      <stop offset="0.499" stop-color="#f5efef"/>
      <stop offset="1" stop-color="#f4efef"/>
    </linearGradient>
    <linearGradient id="linear-gradient-2" x1="1576.315" y1="535.438" x2="1576.315" y2="21.5" xlink:href="#linear-gradient"/>
  </defs>
  <path id="Rounded_Rectangle_1_copy_2" data-name="Rounded Rectangle 1 copy 2" class="cls-1" d="M122.744,369.44L1852.26,211.008c60.05,0,108.73,49.474,108.73,110.5l-106.14,974c0,61.03-48.68,110.51-108.73,110.51L122.744,1060.5c-60.05,0-108.73-49.48-108.73-110.5V479.944C14.014,418.914,62.694,369.44,122.744,369.44Z"/>
  <path id="Rounded_Rectangle_1_copy" data-name="Rounded Rectangle 1 copy" class="cls-2" d="M132.534,379.636L1841.81,225.57a107.458,107.458,0,0,1,107.46,107.458l-104.9,947.152a107.458,107.458,0,0,1-107.46,107.46L132.534,1051.65A107.458,107.458,0,0,1,25.076,944.188V487.093A107.457,107.457,0,0,1,132.534,379.636Z"/>
  <path id="Color_Fill_1" data-name="Color Fill 1" class="cls-1" d="M479,448c68.219-.454,101.607,21.576,122,69q1,5,2,10c7.151,20.331,7,48.449,7,76V806c0,11.272,1.659,26.527-1,36v18h-1v8h-1v6h-1v5h-1q-0.5,4-1,8h-1q-0.5,3-1,6h-1q-0.5,3-1,6h-1q-0.5,2.5-1,5h-1q-0.5,2-1,4h-1q-0.5,2-1,4l-2,1q-0.5,2-1,4h-1q-0.5,1.5-1,3l-2,1v2l-3,2v2l-6,5-9,10h-2l-2,3h-2q-0.5,1-1,2h-2q-0.5,1-1,2l-6,2v1h-2v1l-6,2v1l-6,1v1h-3v1h-3v1h-3v1l-9,1v1l-15,1v1H487c-20.959,0-37.679-3.71-52-10h-3v-1l-6-2v-1l-4-1-1-2-4-1-2-3h-2l-2-3h-2l-5-6-8-7v-2l-3-2-1-3-2-1-1-4-2-1-2-6h-1v-2h-1l-2-6h-1q-0.5-3-1-6h-1v-2h-1v-4h-1v-3h-1v-4c-6.107-18.226-5-44.412-5-69V591c0-27.9.22-50.237,8-70q0.5-3,1-6c12.277-28.456,30.519-46.721,59-59h3v-1h3v-1h3v-1h4c4.833-1.582,11.86-2.547,17-4C471.749,447.94,476.566,450.1,479,448ZM890,625H815V554h-1q-1-6-2-12h-1q-0.5-2-1-4h-1q-0.5-2-1-4l-3-2-5-6h-2v-1l-6-2v-1c-2.8-1.106-18.61-3.263-23-2v1h-6v1l-6,1-11,8v2l-2,1v2l-2,1q-2.5,8-5,16v12h-1V800c0,27.163-3,63.692,8,80l3,2,4,5h2q0.5,1,1,2c5.568,3.421,23.55,5.705,32,3l7-1v-1l4-1v-1h2q0.5-1,1-2h2q0.5-1,1-2l4-3c8.36-11.836,8-26.854,8-47V771h75v57c0,9.2,1.115,21.51-1,29v10h-1v7h-1v5h-1v5h-1v4h-1v3h-1v3h-1v3h-1v3h-1v2h-1v3h-1q-1,3-2,6h-1q-0.5,2-1,4l-2,1q-0.5,2-1,4l-2,1v2l-3,2v2l-4,3v2l-7,6q-0.5,1-1,2h-2l-3,4h-2q-0.5,1-1,2l-3,1v1h-2q-0.5,1-1,2l-23,10-27,5H778c-10.384,0-21.038.316-29-2l-11-1-21-7v-1l-4-1v-1l-4-1q-0.5-1-1-2l-4-1-2-3h-2l-2-3h-2l-4-5-9-8v-2l-3-2q-0.5-1.5-1-3l-2-1q-0.5-2-1-4l-2-1q-0.5-2-1-4h-1v-2h-1q-1-3-2-6h-1c-13.229-29.724-11-75.16-11-118V564h1v-9q1-9.5,2-19h1q1-6,2-12h1q0.5-3,1-6h1q0.5-3,1-6h1q0.5-2.5,1-5h1q0.5-2,1-4h1q0.5-2,1-4l2-1q0.5-2,1-4l2-1v-2l3-2v-2l4-3v-2l7-6,2-3h2l3-4h2q0.5-1,1-2h2q0.5-1,1-2l3-1v-1l4-1v-1l6-2v-1h3v-1h2v-1l9-2v-1h4v-1l9-1v-1h7v-1h11c3.339-.928,16.235-2.341,21-1v1l18,1v1h5v1h5v1h3v1l7,1v1h2v1h3v1l6,2v1h2v1l6,2q0.5,1,1,2h2q0.5,1,1,2h2l2,3h2l5,6,9,8v2l3,2v2l2,1v2l2,1q1,3,2,6l2,1v2h1v2h1v3h1q0.5,2,1,4h1l7,26q0.5,8.5,1,17c1.707,6.089,1,16.267,1,24v45ZM85,958V456c7.814-2.85,29.583-1,40-1h88c2.944,2.52,9.583-.247,14,1v1h8v1h5v1h5v1h4l23,9,1,2,4,1v1l3,1,1,2h2l2,3h2l6,7,5,4v2l3,2v2l3,2,1,4,2,1,2,6h1l2,6h1c12.731,28.631,11,70.631,11,112V788c0,27.282,2.607,61.557-4,83q-1,6.5-2,13l-9,23-2,1-1,4-2,1v2l-2,1v2l-3,2v2l-10,9-4,5h-2l-1,2-3,1v1h-2l-1,2-6,2-1,2h-3v1l-4,1v1l-25,7h-7c-12.016,3.419-30.013,2-45,2H85Zm1101,0h-79a70.632,70.632,0,0,0-3-19v-7h-1v-7h-1v-7h-1q-0.495-7-1-14-3.495-22-7-44h-90l-14,98H916a61.684,61.684,0,0,1,3-18v-6h1v-6h1v-6h1v-7c3.277-10.985,3.754-25,7-36q1-9.5,2-19h1v-6h1v-6h1v-6c3.989-13.214,4.069-29.855,8-43q0.5-6,1-12h1v-7c3.266-10.99,3.762-25,7-36v-7h1q1-9,2-18c5.1-16.93,4.949-38.086,10-55v-6h1v-7h1v-6h1v-6c1.563-5.193,2.448-12.8,4-18q0.5-6.5,1-13c2.121-7.151,2.866-16.854,5-24q1-9.5,2-19h1q1-9,2-18c5.084-16.9,4.953-38.079,10-55v-6c1.628-5.417,2.382-13.579,4-19,1.235-4.138-.445-8.341,2-11,2.64-2.3,22.48-1,28-1h78c0.84,1.135-.13.145,1,1Q1145.5,706.976,1186,958ZM482,520c-2.276,2.016-5.916.77-9,2v1h-2v1l-6,2-2,3-6,5v2l-2,1-1,4h-1v3c-7.209,18.084-4,53.351-4,78V798c0,26.222-3.527,64.078,7,80l3,2v2h1l2,3h2l2,3,6,2v1h3v1h5c2.981,0.886,15.611,2.321,20,1,9.251-2.785,18.346-7.646,23-15q1-3,2-6h1v-2h1v-3c2.9-7.631,3-15.985,3-27V611c0-17.728,2.5-47.295-2-61v-4h-1v-3h-1q-1-3-2-6h-1v-2l-4-3v-2l-3-1-2-3C506.2,520.845,495.105,519.917,482,520ZM164,886h35l19-1v-1c2.732-1,5.741-.608,8-2q0.5-1,1-2h2l2-3h2q0.5-1,1-2h1c12.729-17.178,10-49.223,10-79V622c0-27.613,3.184-64.408-8-81l-4-3-3-4h-2q-0.5-1-1-2l-4-1v-1c-11.892-5.185-40.975-3.1-58-3-2.751,7.556-1,24.31-1,34V886Zm849-95h70q-1.5-14-3-28h-1v-8c-3.09-10.566-2.91-24.432-6-35q-0.495-7-1-14c-3.76-12.766-3.27-29.221-7-42q-0.495-7-1-14h-1q-0.495-7.5-1-15c-4.39-14.973-3.64-34.013-8-49q-0.495-7-1-14h-1v-7h-1v-7h-1v-7h-1c-0.83-2.857-.02-5.407-1-8h-1Q1030.005,666.987,1013,791Z"/>
  <path class="cls-3" d="M1399.21,1338.26h40.63s-2.83-37.04-19.58-53.72-107.57-25.99-107.57-25.99,82.04-34.78,101.16-86.34c39.47-106.4,5.99-184.507,5.99-184.507s-43.62-44.229-115.06-53.228c-68.29-8.6-65.13,29.31-65.13,29.31s79.33-1.978,110.71,39.085,27.67,135.27-6.51,179.11-130.25,94.45-130.25,94.45,85.45-15.82,133.51,6.51S1399.21,1338.26,1399.21,1338.26Z"/>
  <path id="Body_copy_3" data-name="Body copy 3" class="cls-4" d="M1093.12,1237.35s-64.75,25.15-127-22.8-50.038-155.19-19.538-185.63-86.727,39.01-39.075,188.89c35.884,112.86,153.05,127.01,153.05,127.01l341.91,3.25s-8-64.23-65.13-71.64-127,0-127,0,152.47-32.43,162.82-182.38c1.05-151.437-136.95-125.52-143.28-127.008-4.09-3.721,19.59-17.052,117.23.213,83.96,15.224,84.66,71.755,84.66,71.755s-3.64,83.19,0,126.69c2.69,32.08-3.25,100.96-3.25,100.96s33.92,19.19,32.56,58.62c-2.72,21.75,40.5,21.93,104.2,19.54,5.25-25.51-35-43.1-39.08-71.65s-3.25-312.641-3.25-312.641l61.87-29.31c-0.33-.691-0.91,56.1-3.26,110.731-1.42,33.08-1.1,77.15,0,110.72,1.34,40.68,3.15,97.42,3.26,97.7,0,0,35.63,50.46,29.3,65.14s-12.73,28.98,3.26,29.31,102.33,10.46,100.95,0c-1.76-13.27-24.64-52.87-58.62-81.42-9.51-47.58,0-201.91,0-201.91s-2.45-165.292,0-172.608,44.66-97.836,42.33-195.4-42.33-123.754-42.33-123.754l-35.82-32.566S1353.55,379.648,1340.6,423.178c-7.49,25.159-8.91,121.781-13.03,162.834s-43.18,190.511-68.38,240.993-141.68,190.535-159.56,260.535S1093.12,1237.35,1093.12,1237.35Z"/>
  <path class="cls-5" d="M904.253,1198.27c-1.225-12.06,55.161,79.37,130.257,81.41s178.12-61.16,198.63-81.41,80.65-92.84,81.41-130.27,0.01-45.62-3.26-58.62-23.52-39.714-35.82-42.338,53.99,7.514,75.54,38.688,33.64,118.29,2.61,163.23-74.53,73.04-91.17,81.41-52.11,22.8-52.11,22.8,38.54,5.64,68.39,22.8,44.51,37.24,45.58,42.33,0,6.52,0,6.52-254.21-2.29-276.78-3.26-64.5-24.98-91.176-48.85S907.617,1231.34,904.253,1198.27Z"/>
  <path class="cls-5" d="M1462.74,1336.62l14.47,6.75s15.73-17.07,6.66-27.86-20.96-32.19-26.05-45.6,0.37-165.77,0-182.37,8.45-109.894,0-107.471c-12.56,3.6-56.01,9.273-56.01,9.273s27.55,22.808,27.87,44.258c-1.6,23.68-1.64,234.37-1.64,234.37s15.12,9.93,23.27,24.74S1457.69,1334.94,1462.74,1336.62Z"/>
  <path class="cls-6" d="M1695.53,247.318c-1.77.883-13.59,106.049-71.64,159.577s-26.05,22.8-26.05,22.8-16.74,29.918-26.05,32.567-34.78,19.4-45.59,22.8-61.87,3.256-61.87,3.256,32.8,12.539,71.64,3.257,88.85-39.777,104.2-55.363,52.77-64.7,55.36-74.9,2.8-63.923,3.26-74.9S1698.89,245.636,1695.53,247.318Z"/>
  <path id="head-2" data-name="head" class="cls-7" d="M1356.88,439.461s58.77,121.2,263.76,91.187c11.41-1.671,29.08-44.459,29.08-44.459s35.03-18.178,61.4-44.7c18.78-18.877,77.58-182.879,77.58-182.879s12.58,3.266,4.54,72.68-8.13,136.468,20.62,143.179,79.19-65.237,89.84-103.385-35.32-190.7-133.8-226.581c-13.12-24.765-19.68-64.954-108.55-102.662s-137.26-1.638-137.26-1.638-123.34-51.388-212.01,16.167-65.42,178.486-49.79,184.06,72.93-46.423,95.93-76.04,72.27-81.122,67.31-66.954-72.21,143.386-78.03,175.61c-5.94,32.919,11.13,72.759,9.78,78.934-3.62,16.583-13.76,48.521-13.43,67.936,0.18,10.611,3.32,11.607,12.75,17.924"/>
  <path id="Toungh_copy" data-name="Toungh copy" class="cls-8" d="M1465.22,429.133s-17.99,38.355,16.44,52.965,51.24-20.713,51.24-20.713l-23.26-45.243Z"/>
  <path id="Toungh_line_copy" data-name="Toungh line copy" class="cls-9" d="M1501.56,426.862c0.38,1.827-3.64,16.925-8.45,28.254s-9.97,16.717-7.63,17.988,18.15-20.742,18.71-27.436S1501.18,425.035,1501.56,426.862Z"/>
  <path id="lip_top" data-name="lip top" class="cls-10" d="M1424.8,365.991s3.69,33.4,27.53,43.518,45.22,0.3,47.87-4.451,10.17-23.984,10.17-23.984l23.98,10.176-11.44,26.982s-1.57,20.56,25.34,31.979,57.68-10.9,57.68-10.9-14.48,43.382-65.76,21.621c-30.63-13-18.64-29.063-34.34-35.795-11.44-4.9-9.48,17.2-55.59-2.363C1405.55,403.812,1424.8,365.991,1424.8,365.991Z"/>
  <path id="ear_shadow_2" data-name="ear shadow 2" class="cls-11" d="M1805.24,219.64s24.75,34.588,43.42,64.413,43.63,91.511,41.42,102.479-63.33,100.4-77.13,73.405-13.49-98.329-13.26-118.831,1.62-96.434-.36-99.208S1805.24,219.64,1805.24,219.64Z"/>
  <path id="ear_shadow" data-name="ear shadow" class="cls-11" d="M1436.98,70.459l-6.36,14.99s-82.28,70.294-111.64,104.747-44.69,45.649-55.87,39.973-14.57-74.343-7.17-91.486,17.02-28.457,41.33-39.064S1399.34,69.7,1409.18,69.277,1436.98,70.459,1436.98,70.459Z"/>
  <path id="eye2" class="cls-10" d="M1503.65,180.115c18.21,7.727,25.86,30.77,17.08,51.466s-30.66,31.211-48.87,23.484S1446,224.3,1454.78,203.6,1485.44,172.388,1503.65,180.115Z"/>
  <path id="eye2_copy_3" data-name="eye2 copy 3" class="cls-12" d="M1485,183.787c6.11,2.533,8.68,10.086,5.73,16.87s-10.29,10.231-16.4,7.7-8.68-10.086-5.73-16.87S1478.89,181.254,1485,183.787Z"/>
  <path id="nose" class="cls-10" d="M1552.89,314.21c31.45,13.347,49.83,40.945,41.05,61.642s-41.39,26.655-72.85,13.308-49.84-40.945-41.06-61.642S1521.43,300.863,1552.89,314.21Z"/>
  <path class="cls-13" d="M1507.13,318.744c-9,7.092,8.06,3.18,20.84,7s24.03,12.8,26.17,9.567c2.86-4.318-6.55-15.525-19.19-18.822S1514.48,312.944,1507.13,318.744Z"/>
  <path class="cls-13" d="M1567.35,337.021c2.72,0,4.92,1.834,4.92,4.1s-2.2,4.1-4.92,4.1-4.91-1.835-4.91-4.1S1564.64,337.021,1567.35,337.021Z"/>
  <path id="Shape_15_copy_2" data-name="Shape 15 copy 2" class="cls-10" d="M1716.45,287.427s8.39,1.876,10.41-7.118c1.63-7.286-14.06-12.024-24.65-13.705s-35.94-3.258-46.48.279-29.58,10.514-26.92,17.035,5.53,7.012,12.39,8.4,19.04,2.935,30.7,9.928,24.57,19.924,28.78,20.278,6.5-5.108,7.05-8.87-9.94-14.008-20.44-19.579-23.23-11.572-27.39-11.753-3.87,1.086-.36-0.451,14.56-3.8,26.17-1.031S1712.47,287.344,1716.45,287.427Z"/>
  <path class="cls-10" d="M1457.82,151.165a72.269,72.269,0,0,1,26-3.707c8.78,0.378,21.41,4.29,21.41,4.29s15.62,15.121,22.01-.141c8.75-20.924-18.14-23.854-35.14-23.284-17.84.6-42.11,16.34-44.79,23.88C1446.28,155.079,1453.19,152.68,1457.82,151.165Z"/>
  <path id="Shape_16_copy" data-name="Shape 16 copy" class="cls-10" d="M1721.32,263.433a169.813,169.813,0,0,0-15.39-16.42c-6.35-6.106-18.99-11.657-18.99-11.657s-18.91-3.782-14.03-17c7.72-20.885,29.43-2.98,40.81,9.723,11.93,13.332,17.63,36.643,14.15,43.68C1726.55,274.441,1723.46,267.816,1721.32,263.433Z"/>
  <path id="Collar_copy" data-name="Collar copy" class="cls-1" d="M1625.07,539.214s-1.27-3.707,13.79-21.884c9-10.86,10.44-27.882,10.44-27.882s-65.89,55.518-152.27,39.829c-104.38-18.959-152.97-121.033-152.97-121.033a236.956,236.956,0,0,0-8.24,31.193c-3.4,17.8-1.93,37.472-1.93,37.472s49.25,73.167,150.61,87.4C1569.09,576.183,1625.07,539.214,1625.07,539.214Z"/>
  <path id="Collar_Shadow_copy" data-name="Collar Shadow copy" class="cls-14" d="M1646.33,495.613s-47.09,29.028-74.06,34.81c-47.43,10.167-89.05-2.385-94.19-3.4-5.21-1.028,32.58,19.515,54.69,21.744,21.1,2.128,50.92-7.109,63.02-10.533,11.93-3.375,10.98,3.078,17.45,2.024,15.29-2.488,26.42-23.044,29.51-27.863C1645.92,507.438,1649.15,494.938,1646.33,495.613Z"/>
  <path class="cls-5" d="M1642.75,1346.64s-37.18,2.58-37.7-6.55,10.34-21.05,9.83-31.14-10.9-25.79-16.39-34.42-13.48-17.85-14.75-22.95-3.03-94.5-3.28-106.53,3.28-213.073,3.28-213.073,25.98-19,27.87-21.307-1.64,45.892-1.64,45.892-8.68,218.408-8.2,224.538,0.57,63.02,3.28,68.84,28.47,51.6,32.78,59.01S1641.65,1331.88,1642.75,1346.64Z"/>
  <path class="cls-5" d="M1698.47,1349.92s3.75-6.7,1.64-11.47,6.41-4.09,6.56,3.28S1709.8,1351.18,1698.47,1349.92Z"/>
  <path id="Shape_19_copy" data-name="Shape 19 copy" class="cls-5" d="M1673.89,1349.92s3.75-6.7,1.64-11.47,6.41-4.09,6.55,3.28S1685.21,1351.18,1673.89,1349.92Z"/>
  <path id="Shape_19_copy_2" data-name="Shape 19 copy 2" class="cls-5" d="M1542.77,1345s3.75-6.69,1.64-11.47,6.41-4.09,6.55,3.28S1554.09,1346.26,1542.77,1345Z"/>
  <path id="Shape_19_copy_3" data-name="Shape 19 copy 3" class="cls-5" d="M1519.82,1345s3.75-6.69,1.64-11.47,6.41-4.09,6.56,3.28S1531.15,1346.26,1519.82,1345Z"/>
  <path id="Shape_19_copy_4" data-name="Shape 19 copy 4" class="cls-5" d="M1355.92,1346.64s3.75-6.69,1.64-11.47,6.41-4.09,6.56,3.28S1367.25,1347.9,1355.92,1346.64Z"/>
  <path id="Shape_19_copy_5" data-name="Shape 19 copy 5" class="cls-5" d="M1378.87,1346.64s3.75-6.69,1.64-11.47,6.41-4.09,6.55,3.28S1390.2,1347.9,1378.87,1346.64Z"/>
  <path id="Shape_19_copy_6" data-name="Shape 19 copy 6" class="cls-15" d="M1410.01,1338.45s3.75-6.7,1.64-11.47,6.41-4.09,6.55,3.27S1421.34,1339.71,1410.01,1338.45Z"/>
  <path id="Shape_19_copy_7" data-name="Shape 19 copy 7" class="cls-15" d="M1426.4,1338.45s3.75-6.7,1.64-11.47,6.41-4.09,6.55,3.27S1437.73,1339.71,1426.4,1338.45Z"/>
  <path class="cls-16" d="M1657.5,863.139s44.15-143.287,36.06-185.206-14.33-61.162-22.95-77.033-41.05-39.669-34.42-24.585c7.3,16.606-3.55,18.395-19.67,9.834-18.28-9.717-31.5-16.369-21.3,4.917,13.08,27.327,4.7,42.753-4.92,42.614-8.93-.13-22.69-4.84,3.28,19.668,34.16,32.234,70.98,65.494,65.56,103.256C1640.37,887.3,1657.5,863.139,1657.5,863.139Z"/>
  <path id="ler_l_copy" data-name="ler l copy" class="cls-17" d="M1878.76,1158.16s38.03-15.2,55.73-1.64,12.43,68.06-9.84,106.53-45.32,64.35-44.25,68.84,26.77,12.99,27.86,31.14-23.31,16.56-32.78,16.39c-12.21-.21-9.6-14.5-14.75-21.3s-16.38-25.9-14.75-32.78S1871.29,1159.15,1878.76,1158.16Zm-272.07-1.64s-49.71-25.29-62.28,3.28,16.84,93.6,40.97,124.56,23.59,49.19,19.67,54.09-35.91,25.18-19.67,37.7,29.5,9.83,29.5,9.83,26.37-41.19,26.23-45.89S1606.69,1161.5,1606.69,1156.52ZM1614,1051s-18.4,59-15.51,85.85,18.36,120.91,21.31,134.4,11.78,67.22,13.11,70.48-21.48,13.04-22.94,24.58,3.57,27.73,14.75,32.78,37.33,5.34,47.53,4.92,21.97-4.47,27.86-8.2,8.3-14.81,9.84-16.39-4.92-129.48-4.92-129.48,15.84,15.52,32.78,14.75,39.33-14.75,39.33-14.75-8.23,88.48-8.19,101.62-0.07,31.04,6.56,36.06,27.64,15.72,45.89,14.75,34.67-2.83,40.97-6.56,8.99-20.24,8.2-26.22-15.55-22.38-18.03-24.59-1.9-27.2,0-32.78,19.35-100.1,21.31-114.73,5.7-86.73,3.27-101.61-8.19-39.34-8.19-39.34-69.22,18.03-126.2,18.03S1609.62,1039.5,1614,1051Zm258.21-1.02s30.64-16.57,54.08-39.33,50.26-65.018,47.53-80.312-11.42-23.993-18.02-29.5a130.247,130.247,0,0,1-13.12-13.112s0.61-15.755-3.59-37.912c-5.25-27.7-18.01-65.412-48.85-94.847-55.52-52.976-135.98-55.737-149.15-55.726s-109.25,5.122-160.63,68.838-39.33,121.286-39.33,121.286-33.25,26.685-32.78,42.614,22.73,61.941,68.84,90.143,109.67,44.25,170.45,44.25S1859.61,1053.82,1872.21,1049.98Zm70.47-199.953s15.71-61.964,11.48-118.008-12.2-84.041-19.67-85.227-88.41,44.717-99.98,57.364-8.2,13.113-8.2,13.113,40.09,15.987,63.93,42.613S1934.22,848.036,1942.68,850.027Zm-281.9-132.758s-44.52-38.128-63.93-49.17-44.95-26.1-54.08-21.307-18.17,72.811-16.39,95.061,5.61,103.855,16.39,113.091-0.75-43.766,42.61-85.228S1660.78,717.269,1660.78,717.269Z"/>
  <path id="leg_r" data-name="leg r" class="cls-18" d="M1878.76,1158.16s38.03-15.2,55.73-1.64,12.43,68.06-9.84,106.53-45.32,64.35-44.25,68.84,26.77,12.99,27.86,31.14-23.31,16.56-32.78,16.39c-12.21-.21-9.6-14.5-14.75-21.3s-16.38-25.9-14.75-32.78S1871.29,1159.15,1878.76,1158.16Z"/>
  <path id="leg_l" data-name="leg l" class="cls-18" d="M1606.69,1156.52s-49.71-25.29-62.28,3.28,16.84,93.6,40.97,124.56,23.59,49.19,19.67,54.09-35.91,25.18-19.67,37.7,29.5,9.83,29.5,9.83,26.37-41.19,26.23-45.89S1606.69,1161.5,1606.69,1156.52Z"/>
  <path id="body" class="cls-19" d="M1614,1051s-18.4,59-15.51,85.85,18.36,120.91,21.31,134.4,11.78,67.22,13.11,70.48-21.48,13.04-22.94,24.58,3.57,27.73,14.75,32.78,37.33,5.34,47.53,4.92,21.97-4.47,27.86-8.2,8.3-14.81,9.84-16.39-4.92-129.48-4.92-129.48,15.84,15.52,32.78,14.75,39.33-14.75,39.33-14.75-8.23,88.48-8.19,101.62-0.07,31.04,6.56,36.06,27.64,15.72,45.89,14.75,34.67-2.83,40.97-6.56,8.99-20.24,8.2-26.22-15.55-22.38-18.03-24.59-1.9-27.2,0-32.78,19.35-100.1,21.31-114.73,5.7-86.73,3.27-101.61-8.19-39.34-8.19-39.34-69.22,18.03-126.2,18.03S1609.62,1039.5,1614,1051Z"/>
  <path class="cls-20" d="M1868.93,1364.67s-25.6-10.77-44.25-13.11-42.29.85-34.42-1.64,36.44-16.46,42.61-34.42,31.76-86.53,32.78-75.39-15.45,75.89-14.75,91.78S1868.93,1364.67,1868.93,1364.67Z"/>
  <path class="cls-20" d="M1614.88,1233.55s23.23,102.74,27.87,104.9,37.69,9.83,37.69,9.83-22.49-1.25-34.42,1.64-26.26,14.46-29.5,16.39,3.58-11.38,11.48-16.39,7.36-9.73,6.55-13.11S1614.88,1233.55,1614.88,1233.55Z"/>
  <path class="cls-21" d="M1706.67,1305.67s-16.4-59.35-22.95-73.76-16.2-30.77-4.92-22.94,16.93,22.8,19.67,16.39,4.36-5.79,9.84,0,9.22,20.02,11.47,11.47,7.05-14.56,11.47-4.92,0.8,17.52,6.56,8.2,13.29-13.44,13.11-4.92-6.45,15.58,6.56,1.64,15.77-23.72,14.75-11.47-6.32,21.36,6.55,8.19,27.23-28.27,21.31-18.03-10.66,32.64-14.75,42.62-13.52,64.15-13.11,55.72,3.28-63.92,3.28-63.92-17.88,14.92-34.42,14.75-34.42-14.75-34.42-14.75S1709.18,1311.41,1706.67,1305.67Z"/>
  <path class="cls-22" d="M1613.24,1053.26s-11.83,24.96,26.23,39.34,66.48,29.07,52.45,13.11,14.84-1.62,27.86,0,23.04,12.42,18.03,1.64-8.06-7.16,19.67,0,63.24,32.56,42.61,8.19-48.16-36.69-8.19-26.22,53.47,23.81,40.97,6.56-10.95-23.38,8.2-14.75,22.29,17,18.02,4.91-8.2-14.09,3.28-11.47,9.63-4.6,9.84-6.56-1.64-14.75-1.64-14.75-24.6,12.66-127.84,11.48S1610.01,1040.7,1613.24,1053.26Z"/>
  <path id="head-3" data-name="head" class="cls-19" d="M1872.21,1049.98s30.64-16.57,54.08-39.33,50.26-65.018,47.53-80.312-11.42-23.993-18.02-29.5a130.247,130.247,0,0,1-13.12-13.112s0.61-15.755-3.59-37.912c-5.25-27.7-18.01-65.412-48.85-94.847-55.52-52.976-135.98-55.737-149.15-55.726s-109.25,5.122-160.63,68.838-39.33,121.286-39.33,121.286-33.25,26.685-32.78,42.614,22.73,61.941,68.84,90.143,109.67,44.25,170.45,44.25S1859.61,1053.82,1872.21,1049.98Z"/>
  <path class="cls-23" d="M1878.76,1161.44s14.75-8.27,18.03-4.92-8.02,58.26-14.75,81.95-27.37,90.26-24.58,91.78,24.75,4.01,21.3,4.92-22.1,2.3-16.39,4.92c23.42,10.71,8.27,57.88,8.2,32.78-0.04-10.99-7.6-18.75-11.48-21.31s-6.36-6.23-6.55-18.03,7.44-50.32,14.75-86.87S1878.76,1161.44,1878.76,1161.44Z"/>
  <path class="cls-23" d="M1632.91,1341.73s-12.82-63.88-16.39-81.95-14.75-103.26-14.75-103.26-12.68.79-14.75,6.56,47.82,170.79,39.34,172.09c-8.18,1.25-21.15-.03-16.39,1.64,6.17,2.16,12.37,4.71,9.83,8.19s-10.38,17.86-13.11,18.03c-6.99.45,9.78,36.37,1.64,11.48-2.18-6.65,3.87-14.15,8.19-18.03S1631.84,1344.24,1632.91,1341.73Z"/>
  <path class="cls-24" d="M1878.76,1379.42s6.32-6.29,4.92-11.47,0.41-10.59,3.28-4.92,1.13,14.97-1.64,16.39S1878.76,1379.42,1878.76,1379.42Zm18.03-1.64s2.65-5.69,1.64-8.19-3.84-9,0-6.56,5.72,8.64,4.92,11.48S1898.14,1377.25,1896.79,1377.78Zm-306.49,1.64s-5.17-3.78-4.92-8.19a14.568,14.568,0,0,1,1.64-6.56,26.912,26.912,0,0,0,1.64,6.56C1589.95,1374.37,1593.8,1380.5,1590.3,1379.42Zm9.83,3.28s-4.23-5.67-4.91-9.83a7.913,7.913,0,0,1,1.63-6.56,75.848,75.848,0,0,0,3.28,8.2C1601.82,1377.88,1608.22,1386.21,1600.13,1382.7Zm31.14,18.03s-8.27-12.98-8.19-19.67c0.06-5.61,3.44-11.68,3.28-9.83-1.46,16.03,9.67,28.04,11.47,29.5S1639.9,1401.81,1631.27,1400.73Zm19.67,1.64s-5.87-10.78-6.55-18.03a15.341,15.341,0,0,1,3.27-11.47s1.35,11.84,3.28,16.39S1660.65,1405.61,1650.94,1402.37Zm193.4-3.28s8.13-9.37,8.2-14.75-1.69-14.91,0-13.11,4.86,14.62,3.28,19.67S1854.59,1398.01,1844.34,1399.09Zm-26.22,1.64s9.99-10.42,9.83-14.75,0-13.11,0-13.11,4.87,9.88,4.92,13.11S1834.03,1401.27,1818.12,1400.73Z"/>
  <path class="cls-25" d="M1926.57,1275.17s-1.08-6.09,3.28-3.28c12.95,8.34,37.31,19.62,44.25,45.89s2.71,56.31-32.78,72.12-73.57,32.01-95.06,9.83c-15.17-15.65-7.04-34.26,14.75-42.61s51.43-8.35,59.01-14.75,4.45-17.94-1.64-22.95a79.08,79.08,0,0,0-16.39-9.83S1925.13,1279.02,1926.57,1275.17Z"/>
  <path class="cls-23" d="M1849.26,1400.73c-4.65-5.58,16.75,9.44,19.67,0s8.38-2.99,14.75,1.64,14.39,1.05,19.67-3.28c5.96-4.9,3.3-11.58,11.47-9.83,8.64,1.85,17.68,4.5,16.39-4.92s5.48-3.69,16.39-6.56c6.5-1.7,9.61-6.2,9.83-8.19,0.48-4.11,9.37-.37,11.48-6.56,1.4-4.12,6.05-8.74,4.91-16.39s-0.01-6.92,1.64-18.03-3.28-17.51,0-8.19,4.31,44.44-6.55,54.09-34.6,20.16-47.53,26.22-31.07,11.59-39.34,11.47S1854.08,1406.51,1849.26,1400.73Z"/>
  <path class="cls-23" d="M1929.57,1274.53l-22.94,34.42s15.46,9.19,18.02,14.75,1.68,12.39,1.64,14.75,6.41,1.86,6.56-6.56-2.76-15.02-4.92-19.67-1.6-4.91-1.64-9.83,2.83-8,1.64-9.83-2.18-7.24,0-9.84S1929.57,1274.53,1929.57,1274.53Z"/>
  <path id="ear_r" data-name="ear r" class="cls-26" d="M1942.68,850.027s15.71-61.964,11.48-118.008-12.2-84.041-19.67-85.227-88.41,44.717-99.98,57.364-8.2,13.113-8.2,13.113,40.09,15.987,63.93,42.613S1934.22,848.036,1942.68,850.027Z"/>
  <path id="ler_l" data-name="ler l" class="cls-26" d="M1660.78,717.269s-44.52-38.128-63.93-49.17-44.95-26.1-54.08-21.307-18.17,72.811-16.39,95.061,5.61,103.855,16.39,113.091-0.75-43.766,42.61-85.228S1660.78,717.269,1660.78,717.269Z"/>
  <path class="cls-24" d="M1860.73,733.658c-0.57-1.719,11.22-20.734,26.23-34.419s37.32-31.026,42.61-29.5,12.26,44.916,11.47,65.559-8.57,76.666-18.02,72.116-10.94-27.594-27.87-44.253S1861.31,735.378,1860.73,733.658Z"/>
  <path class="cls-24" d="M1623.08,732.019c0.04-3.586-23.58-31.709-34.42-40.974s-30.84-27.416-37.7-21.307-10.65,58.2-9.83,78.671,9.8,57.848,14.75,57.365,13.96-24.067,32.78-42.614S1623.04,735.606,1623.08,732.019Z"/>
  <path class="cls-27" d="M1786.98,705.8s-59.79,68.02-36.06,170.456,108.43,93.052,134.4,77.033,57.36-65.56,57.36-65.56-2.24-78.105-45.89-122.925S1786.98,705.8,1786.98,705.8Z"/>
  <path class="cls-27" d="M1691.92,704.156s42.63,65.938,32.78,157.344c-5.97,55.319-27.79,95.481-81.95,98.34-43.3,2.286-104.03-46.806-104.9-72.116s10.82-75.46,31.14-101.618S1632.32,713.6,1691.92,704.156Z"/>
  <path class="cls-28" d="M1649.3,840.193c26.25,0,47.53,22.748,47.53,50.809s-21.28,50.809-47.53,50.809-47.53-22.748-47.53-50.809S1623.05,840.193,1649.3,840.193Z"/>
  <circle id="Ellipse_4_copy" data-name="Ellipse 4 copy" class="cls-29" cx="1642.75" cy="868.063" r="18.03"/>
  <path id="Ellipse_4_copy_3" data-name="Ellipse 4 copy 3" class="cls-28" d="M1834.51,840.193c26.25,0,47.53,22.748,47.53,50.809s-21.28,50.809-47.53,50.809-47.53-22.748-47.53-50.809S1808.26,840.193,1834.51,840.193Z"/>
  <circle id="Ellipse_4_copy_3-2" data-name="Ellipse 4 copy 3" class="cls-29" cx="1827.955" cy="868.063" r="18.015"/>
  <path class="cls-30" d="M1660.78,794.3c4.8,0.194,21.71,4.856,18.02,16.39s-16.83,4.576-27.86,1.639S1619.98,792.656,1660.78,794.3Z"/>
  <path id="Shape_29_copy" data-name="Shape 29 copy" class="cls-30" d="M1821.56,794.4c-4.76.194-21.48,4.866-17.84,16.427s16.66,4.585,27.57,1.642S1861.92,792.755,1821.56,794.4Z"/>
  <path id="Ellipse_4_copy_2" data-name="Ellipse 4 copy 2" class="cls-31" d="M1741.91,918.865c14.03,0,25.4,8.072,25.4,18.029s-11.37,18.029-25.4,18.029-25.41-8.072-25.41-18.029S1727.88,918.865,1741.91,918.865Z"/>
  <path id="Ellipse_4_copy_4" data-name="Ellipse 4 copy 4" class="cls-32" d="M1737.04,924.12c7.71-1.175,14.36.488,14.85,3.715s-6-.414-13.7.761-13.72,6.723-14.21,3.5S1729.34,925.3,1737.04,924.12Z"/>
  <path class="cls-33" d="M1714.86,984.425s-6.57,44.255,26.23,44.255,26.22-44.255,26.22-44.255L1741.09,966.4Z"/>
  <path class="cls-34" d="M1737.81,979.508s3.37,10.025,3.28,18.029,0.77,25.923,1.64,22.943-0.35-32.981,0-36.055,5.01-9.987,1.63-11.473S1737.81,979.508,1737.81,979.508Z"/>
  <path class="cls-24" d="M1701.75,946.728s-5.88,24.842,13.11,26.224,24.59-18.029,24.59-18.029h4.91l-1.63,14.751s-1.58,15.114-27.87,14.751S1685.29,948.6,1701.75,946.728Z"/>
  <path id="Shape_27_copy" data-name="Shape 27 copy" class="cls-24" d="M1781.9,946.728s5.85,24.842-13.07,26.224-24.48-18.029-24.48-18.029h-4.9l1.62,14.751s1.58,15.114,27.76,14.751S1798.29,948.6,1781.9,946.728Z"/>
  <path id="Line_1" data-name="Line 1" class="cls-35" d="M1771.33,959.633a225.932,225.932,0,0,1,42.39-4.647c22.35-.069,56.1,17.655,56.1,17.655s-23.36-12.6-47.41-15.775C1797.25,953.542,1771.33,959.633,1771.33,959.633Z"/>
  <path id="Line_1_copy" data-name="Line 1 copy" class="cls-35" d="M1777.79,953.391a232.629,232.629,0,0,1,40.72-7.714c21.68-1.9,55.93,11.476,55.93,11.476s-23.73-9.559-47.33-10.477C1802.41,945.714,1777.79,953.391,1777.79,953.391Z"/>
  <path id="Line_1_copy_2" data-name="Line 1 copy 2" class="cls-35" d="M1772.37,966.767a243.344,243.344,0,0,1,43.04,5.137c22.22,4.936,52.16,29.066,52.16,29.066s-20.65-17.009-43.9-25.361C1799.34,966.868,1772.37,966.767,1772.37,966.767Z"/>
  <path id="Line_1_copy_3" data-name="Line 1 copy 3" class="cls-35" d="M1714.48,959.366a219.9,219.9,0,0,0-42.05-4.705c-22.17-.07-55.66,17.873-55.66,17.873s23.17-12.754,47.03-15.969C1688.77,953.2,1714.48,959.366,1714.48,959.366Z"/>
  <path id="Line_1_copy_3-2" data-name="Line 1 copy 3" class="cls-35" d="M1708.07,953.047a226.949,226.949,0,0,0-40.4-7.81c-21.5-1.921-55.48,11.618-55.48,11.618s23.54-9.676,46.95-10.606C1683.65,945.275,1708.07,953.047,1708.07,953.047Z"/>
  <path id="Line_1_copy_3-3" data-name="Line 1 copy 3" class="cls-35" d="M1713.46,966.587a236.907,236.907,0,0,0-42.71,5.2c-22.04,5-51.75,29.422-51.75,29.422s20.49-17.218,43.55-25.672C1686.69,966.69,1713.46,966.587,1713.46,966.587Z"/>
  <path id="Color_Fill_2" data-name="Color Fill 2" class="cls-36" d="M1773,140c4.2,0.462,4.37,1.83,7,3h3v1h2v1h2v1h2c0.33,0.667.67,1.333,1,2l6,2c0.33,0.667.67,1.333,1,2l4,1c0.33,0.667.67,1.333,1,2h2c0.67,1,1.33,2,2,3h2c0.33,0.667.67,1.333,1,2h2l3,4h2c1.33,1.667,2.67,3.333,4,5h2q5.505,6,11,12l6,5v2l6,5v2c1.33,1,2.67,2,4,3v2l3,2c0.33,1,.67,2,1,3,0.67,0.333,1.33.667,2,1v2c0.67,0.333,1.33.667,2,1,0.33,1.333.67,2.667,1,4,0.67,0.333,1.33.667,2,1v2c0.67,0.333,1.33.667,2,1,0.33,1,.67,2,1,3h1v2h1v2c0.67,0.333,1.33.667,2,1v2h1v2h1v2h1v2h1v2c0.67,0.333,1.33.667,2,1v2h1v2h1v2h1v2h1v2h1v2h1v2h1v2h1v2h1c0.67,2,1.33,4,2,6h1v3h1c0.33,1.333.67,2.667,1,4h1v3h1c0.33,1.333.67,2.667,1,4h1c0.33,2,.67,4,1,6h1v2h1c0.33,2,.67,4,1,6h1v3h1v3h1v3h1v3h1v3h1c0.33,2.666.67,5.334,1,8h1v4h1v4h1v4h1v5h1v5h1q0.495,8,1,16h1q-0.495,10.5-1,21h-1q-1.005,5-2,10h-1v2h-1v3h-1v2h-1c-0.33,1.666-.67,3.334-1,5h-1c-0.67,2-1.33,4-2,6h-1v2h-1c-0.67,2-1.33,4-2,6-0.67.333-1.33,0.667-2,1-0.33,1.333-.67,2.667-1,4-0.67.333-1.33,0.667-2,1-0.33,1.333-.67,2.667-1,4-0.67.333-1.33,0.667-2,1-0.33,1.333-.67,2.667-1,4-0.67.333-1.33,0.667-2,1v2h-1c-0.33,1-.67,2-1,3-0.67.333-1.33,0.667-2,1v2l-3,2v2c-0.67.333-1.33,0.667-2,1v2c-1.33,1-2.67,2-4,3v2c-1.33,1-2.67,2-4,3v2q-3.495,3-7,6v2c-1.67,1.333-3.33,2.667-5,4-0.33.667-.67,1.333-1,2h-2c-1.67,2-3.33,4-5,6h-2c-0.67,1-1.33,2-2,3h-2c-0.33.667-.67,1.333-1,2h-2c-0.33.667-.67,1.333-1,2h-2v1l-4,1v1h-3v1h-4c-16.49,5.217-27.5-9.691-32-20l-3-14c-4.32-13.364-4-31.155-4-49,0-7.438-.63-17.194,1-23q0.495-12.5,1-25h1V337h1v-9h1V318h1V304c2.74-9.746-.03-22.654,0-33h-1v1h-1c-0.33,1.666-.67,3.334-1,5h-1v3h-1v3h-1v3h-1v2h-1c-0.33,2-.67,4-1,6h-1v2h-1c-0.33,2-.67,4-1,6h-1v2h-1c-0.33,2-.67,4-1,6h-1v2h-1v3h-1v2h-1c-0.33,2-.67,4-1,6h-1v2h-1v3h-1v2h-1c-0.33,2-.67,4-1,6h-1v2h-1v3h-1v2h-1v3h-1v2h-1v3h-1v2h-1v3h-1c-0.33,1.666-.67,3.334-1,5h-1v2h-1v3h-1c-0.33,1.666-.67,3.334-1,5h-1v2h-1v3h-1c-0.33,1.333-.67,2.667-1,4h-1v3h-1v2h-1v3h-1c-0.33,1.333-.67,2.667-1,4h-1v3h-1c-0.33,1.333-.67,2.667-1,4h-1v2h-1v3h-1c-0.67,2-1.33,4-2,6h-1v2h-1v3h-1c-0.67,2-1.33,4-2,6h-1v2h-1v2h-1c-0.67,2-1.33,4-2,6-0.67.333-1.33,0.667-2,1-0.33,1.333-.67,2.667-1,4-0.67.333-1.33,0.667-2,1-0.33,1.333-.67,2.667-1,4-1.33,1-2.67,2-4,3q-4.995,5.5-10,11h-2c-1.33,1.666-2.67,3.334-4,5h-2l-3,4h-2c-0.67,1-1.33,2-2,3h-2c-0.33.667-.67,1.333-1,2h-2c-0.67,1-1.33,2-2,3h-2c-0.33.667-.67,1.333-1,2h-2c-0.33.667-.67,1.333-1,2l-3,1v1l-4,1v1l-3,1c-0.33.667-.67,1.333-1,2l-4,1c-0.33.667-.67,1.333-1,2l-6,2c-0.86.66-4.63,9.255-5,11h-1v-3c2.29-2.376,1.53-7.2,1-10q10.005-5.5,20-11c0.33-.667.67-1.333,1-2h2c0.33-.667.67-1.333,1-2h2c0.33-.667.67-1.333,1-2h2c0.33-.667.67-1.333,1-2h2c0.67-1,1.33-2,2-3h2c0.33-.667.67-1.333,1-2l3-1c0.67-1,1.33-2,2-3h2c1.33-1.666,2.67-3.334,4-5h2q3.495-4,7-8h2l3-4h1v-2l3-2c0.33-1.333.67-2.667,1-4,0.67-.333,1.33-0.667,2-1v-2h1v-2h1v-2h1v-2c0.67-.333,1.33-0.667,2-1v-2h1c0.33-1.333.67-2.667,1-4h1v-3h1v-2h1v-2h1c0.67-2,1.33-4,2-6h1v-3h1v-2h1c0.33-1.333.67-2.667,1-4h1v-3h1c0.33-1.333.67-2.667,1-4h1v-3h1c0.33-1.333.67-2.667,1-4h1v-3h1v-2h1c0.33-1.666.67-3.334,1-5h1v-3h1c0.33-1.333.67-2.667,1-4h1v-3h1v-2h1v-3h1v-2h1c0.33-1.666.67-3.334,1-5h1v-3h1v-2h1c0.33-2,.67-4,1-6h1c0.33-1.666.67-3.334,1-5h1v-2h1v-3h1v-2h1c0.33-2,.67-4,1-6h1v-2h1v-3h1v-2h1c0.33-2,.67-4,1-6h1v-2h1c0.33-2,.67-4,1-6h1v-2h1v-3h1v-3h1v-2h1q4.995-15,10-30c2.76,0.723,2.24.279,3,3h1c0.33,2,.67,4,1,6h1v6c2.88,9.918,1.51,41.045-1,50v10h-1v9h-1v10h-1v13h-1v17h-1c-1.45,5.19-.09,28.111,1,32v13h1v7h1v6h1v5h1v3h1v4h1v2h1v3h1c0.33,1.333.67,2.667,1,4,0.67,0.333,1.33.667,2,1v2l6,5c0.33,0.667.67,1.333,1,2,1.68,1.156,2.27.011,4,2l9,1v-1h5v-1h2v-1h3v-1h2c0.33-.667.67-1.333,1-2h2v-1l3-1c0.33-.667.67-1.333,1-2h2l3-4h2q4.005-4.5,8-9c1.67-1.333,3.33-2.667,5-4v-2c1.67-1.333,3.33-2.667,5-4v-2c1.33-1,2.67-2,4-3v-2l3-2v-2l3-2v-2c0.67-.333,1.33-0.667,2-1v-2c0.67-.333,1.33-0.667,2-1v-2c0.67-.333,1.33-0.667,2-1v-2c0.67-.333,1.33-0.667,2-1v-2c0.67-.333,1.33-0.667,2-1,0.33-1.333.67-2.667,1-4,0.67-.333,1.33-0.667,2-1v-2h1v-2h1v-2h1v-2c0.67-.333,1.33-0.667,2-1,0.33-1.333.67-2.667,1-4h1c0.33-1.333.67-2.667,1-4h1v-3h1v-2h1c0.33-1.333.67-2.667,1-4h1c0.33-2,.67-4,1-6h1v-2h1v-4h1v-4h1V345h-1q-0.495-7-1-14h-1c-0.33-3.333-.67-6.667-1-10h-1c-0.33-2.666-.67-5.334-1-8h-1c-0.33-2.333-.67-4.667-1-7h-1v-3h-1v-4h-1v-3h-1v-3h-1v-3h-1v-3h-1v-2h-1c-0.33-2-.67-4-1-6h-1v-2h-1v-3h-1v-2h-1v-3h-1c-0.33-1.333-.67-2.667-1-4h-1c-0.33-1.666-.67-3.334-1-5h-1c-0.67-2-1.33-4-2-6h-1v-2h-1v-2h-1v-2h-1v-2h-1v-2h-1v-2h-1v-2c-0.67-.333-1.33-0.667-2-1-0.67-2-1.33-4-2-6-0.67-.333-1.33-0.667-2-1-0.33-1.333-.67-2.667-1-4-0.67-.333-1.33-0.667-2-1-0.33-1.333-.67-2.667-1-4h-1c-0.33-1-.67-2-1-3-0.67-.333-1.33-0.667-2-1v-2h-1c-0.33-1-.67-2-1-3-0.67-.333-1.33-0.667-2-1v-2l-3-2v-2l-3-2v-2l-3-2v-2c-1.67-1.333-3.33-2.667-5-4v-2l-18-17c-1.67-2-3.33-4-5-6h-2l-3-4h-2c-0.67-1-1.33-2-2-3h-2c-0.67-1-1.33-2-2-3h-2c-0.33-.667-0.67-1.333-1-2l-4-1c-0.33-.667-0.67-1.333-1-2l-4-1c-0.33-.667-0.67-1.333-1-2h-2v-1h-2v-1h-2v-1l-4-1v-1h-3v-1c-2.46-1.174-5.49-.88-7-3-0.33-1.333-.67-2.667-1-4h-1v-2h-1c-0.67-2-1.33-4-2-6h-1v-3h-1c-0.67-2-1.33-4-2-6h-1v-2h-1c-0.33-1.333-.67-2.667-1-4-0.67-.333-1.33-0.667-2-1-0.33-1.333-.67-2.667-1-4-0.67-.333-1.33-0.667-2-1v-2c-0.67-.333-1.33-0.667-2-1v-2c-0.67-.333-1.33-0.667-2-1v-2c-0.67-.333-1.33-0.667-2-1V99c-1.67-1.333-3.33-2.667-5-4V93c-1.67-1.333-3.33-2.667-5-4q-4.005-4.5-8-9h-2c-1.33-1.666-2.67-3.334-4-5h-2c-0.67-1-1.33-2-2-3h-2c-0.67-1-1.33-2-2-3h-2c-0.33-.667-0.67-1.333-1-2h-2c-0.33-.667-0.67-1.333-1-2l-3-1V63h-2V62h-2c-0.33-.667-0.67-1.333-1-2l-6-2c-0.33-.667-0.67-1.333-1-2h-2V55h-2V54h-2V53h-2V52h-2V51h-2V50h-2V49h-2V48h-2V47l-6-2V44l-5-1V42l-4-1V40h-3V39h-2V38l-6-1V36h-2V35l-10-2V32h-3V31h-3V30l-13-2c-13.28-4.1-39.95-6.351-55-2l-10,1-22,8c-2.1,1.118-6.01,5.11-10,4V38h-3V37h-2V36l-7-1V34h-3V33h-3V32l-7-1V30l-35-7h-8c-8.8-2.469-37.23-3.749-47-1h-10l-30,6v1h-3v1h-3v1h-3v1l-6,1v1h-2v1h-3v1l-6,2v1h-2v1h-2v1h-2v1h-2v1h-2v1h-2v1l-3,1c-0.33.667-.67,1.333-1,2l-4,1c-0.33.667-.67,1.333-1,2h-2c-0.67,1-1.33,2-2,3h-2c-0.67,1-1.33,2-2,3h-2l-3,4h-2q-4.005,4.5-8,9l-12,11c-19.39,26.895-36.99,56.877-37,103,0,17.991,1.64,31.744,7,44v3h1v2h1v2c0.67,0.333,1.33.667,2,1,0.33,1,.67,2,1,3h2c1.35,1.587,2.17,1.737,5,2q5.505-2,11-4v-1h2v-1h2c0.33-.667.67-1.333,1-2l4-1c0.33-.667.67-1.333,1-2h2c0.67-1,1.33-2,2-3h2c0.33-.667.67-1.333,1-2h2l3-4h2l3-4h2c1.33-1.667,2.67-3.333,4-5h2q3.495-4,7-8h2q5.505-6,11-12l15-14v-2q3.495-3,7-6v-2c1.33-1,2.67-2,4-3v-2c1.33-1,2.67-2,4-3v-2c1.33-1,2.67-2,4-3v-2l6-5v-2q3.495-3,7-6c8.77-12.13,19.58-21.58,30-32,4.5-4.5,8.85-11.38,16-13-0.5,7.255-5.27,12.786-8,18l-3,9h-1c-0.33,1.333-.67,2.667-1,4h-1c-0.33,1.333-.67,2.667-1,4h-1v2h-1v2h-1v2h-1v2h-1c-0.67,2-1.33,4-2,6h-1c-0.33,1.333-.67,2.667-1,4h-1v3h-1c-0.67,2-1.33,4-2,6h-1v2h-1v2h-1v2h-1v2h-1v2h-1v2h-1v2h-1v2h-1v2h-1v2h-1v3h-1c-0.33,1.333-.67,2.667-1,4h-1v2h-1v2h-1c-0.67,2-1.33,4-2,6h-1v3h-1v2h-1v2h-1c-0.67,2-1.33,4-2,6h-1v3h-1v2h-1c-0.67,2-1.33,4-2,6h-1v3h-1v2h-1c-0.33,1.333-.67,2.667-1,4h-1v3h-1c-0.33,1.333-.67,2.667-1,4h-1v3h-1v2h-1v3h-1v2h-1v3h-1v2h-1q-4.005,13-8,26v18a113.716,113.716,0,0,0,6,35c0.33,2.666.67,5.334,1,8,0.83,2.494,4.84,12.752,4,16l-9,32v5h-1v4h-1v6h-1v5h-1v6h-1v3h-1v4h-1v3h-1v4h-1v4h-1v4h-1v5h-1v6h-1v9h-1v29h-1v16c-1.39,4.859.56,13.536-1,19-1.39,4.858.57,13.538-1,19h-1v19h-1v16h-1q-0.495,10.5-1,21-5.505,27.5-11,55c-2.82,8.668-5.06,19.376-8,28-0.33,2.666-.67,5.334-1,8h-1v3h-1v4h-1v4h-1c-0.33,2.333-.67,4.667-1,7h-1q-1.005,5.5-2,11h-1v4c-9.25,25.547-15.48,53.858-26,78-0.67,3-1.33,6-2,9h-1c-0.33,1.667-.67,3.333-1,5h-1v2h-1v3h-1c-0.33,1.333-.67,2.667-1,4h-1v3h-1c-0.67,2-1.33,4-2,6h-1v2h-1c-0.67,2-1.33,4-2,6-0.67.333-1.33,0.667-2,1-0.67,2-1.33,4-2,6-0.67.333-1.33,0.667-2,1-0.33,1.333-.67,2.667-1,4-0.67.333-1.33,0.667-2,1v2c-0.67.333-1.33,0.667-2,1v2c-0.67.333-1.33,0.667-2,1v2c-0.67.333-1.33,0.667-2,1v2c-0.67.333-1.33,0.667-2,1v2c-0.67.333-1.33,0.667-2,1v2h-1c-0.33,1-.67,2-1,3-0.67.333-1.33,0.667-2,1v2c-0.67.333-1.33,0.667-2,1v2c-0.67.333-1.33,0.667-2,1v2h-1c-0.33,1-.67,2-1,3-0.67.333-1.33,0.667-2,1v2l-3,2v2h-1c-0.33,1-.67,2-1,3-0.67.333-1.33,0.667-2,1v2l-3,2v2h-1c-0.33,1-.67,2-1,3-0.67.333-1.33,0.667-2,1v2l-3,2v2c-0.67.333-1.33,0.667-2,1v2c-0.67.333-1.33,0.667-2,1v2l-3,2v2h-1c-0.33,1-.67,2-1,3-0.67.333-1.33,0.667-2,1v2l-3,2v2h-1c-0.33,1-.67,2-1,3-0.67.333-1.33,0.667-2,1v2l-3,2v2h-1c-0.33,1-.67,2-1,3-0.67.333-1.33,0.667-2,1v2l-3,2v2c-0.67.333-1.33,0.667-2,1-0.33,1-.67,2-1,3h-1v2c-0.67.333-1.33,0.667-2,1v2c-0.67.333-1.33,0.667-2,1v2l-3,2v2c-0.67.333-1.33,0.667-2,1-0.33,1-.67,2-1,3h-1v2c-0.67.333-1.33,0.667-2,1v2c-0.67.333-1.33,0.667-2,1v2c-0.67.333-1.33,0.667-2,1v2c-0.67.333-1.33,0.667-2,1v2c-0.67.333-1.33,0.667-2,1v2c-0.67.333-1.33,0.667-2,1v2c-0.67.333-1.33,0.667-2,1-0.33,1.333-.67,2.667-1,4-0.67.333-1.33,0.667-2,1v2c-0.67.333-1.33,0.667-2,1v2c-0.67.333-1.33,0.667-2,1v2c-0.67.333-1.33,0.667-2,1v2h-1v2c-0.67.33-1.33,0.67-2,1-0.33,1.33-.67,2.67-1,4h-1c-0.33,1-.67,2-1,3-0.67.33-1.33,0.67-2,1-0.33,1.33-.67,2.67-1,4-0.67.33-1.33,0.67-2,1-0.33,1.33-.67,2.67-1,4-0.67.33-1.33,0.67-2,1-0.67,2-1.33,4-2,6a273.421,273.421,0,0,0-26,54v4h-1v4h-1v4h-1v5h-1v5h-1v5h-1v7h-1v7h-1v9h-1v11c-1.45,5.16.62,14.22-1,20h-1c-1.35,4.8.02,24.5,1,28v20h1v12h1q0.495,6.495,1,13c-3.97.42-6.9,2.02-10,3-3.33.33-6.67,0.67-10,1v1h-8c-9,2.51-27.17,1.29-35-1h-6q-12-3.495-24-7v-1c-1.333-.33-2.667-0.67-4-1v-1h-2v-1h-3v-1h-2v-1h-2c-0.333-.67-0.667-1.33-1-2-2-.67-4-1.33-6-2-0.333-.67-0.667-1.33-1-2h-2c-0.333-.67-0.667-1.33-1-2h-2c-0.333-.67-0.667-1.33-1-2h-2c-0.333-.67-0.667-1.33-1-2h-2c-1-1.33-2-2.67-3-4h-2q-3.5-4.005-7-8c-2-1.67-4-3.33-6-5v-2l-4-3v-2c-0.667-.33-1.333-0.67-2-1q-0.5-1.5-1-3h-1v-2c-0.667-.33-1.333-0.67-2-1q-1-3-2-6h-1v-2h-1q-1-3-2-6h-1v-3h-1v-2h-1v-3h-1v-3h-1v-3h-1v-3h-1q-1-6.495-2-13c-3.868-12.88-4.994-41.1-1-55v-7q4-13.995,8-28h1q1-3,2-6h1v-2h1c0.333-1.33.667-2.67,1-4,0.667-.33,1.333-0.67,2-1v-2c0.667-.33,1.333-0.67,2-1v-2c0.667-.33,1.333-0.67,2-1,2.923-3.1,6.77-6.35,8-11h-2c-1.09,1.34-2.744,1.84-4,3-0.333.67-.667,1.33-1,2h-2c-0.333.67-.667,1.33-1,2-2,1.67-4,3.33-6,5v2c-1.667,1.33-3.333,2.67-5,4a215.042,215.042,0,0,0-28,54c-0.333,2.67-.667,5.33-1,8-12.773,38.18-4.179,94.47,9,125q0.5,3,1,6h1c0.333,1.33.667,2.67,1,4h1v2h1v3h1c0.333,1.33.667,2.67,1,4h1c0.333,1.33.667,2.67,1,4,0.667,0.33,1.333.67,2,1q1,3,2,6h1q0.5,1.5,1,3c0.667,0.33,1.333.67,2,1,0.333,1.33.667,2.67,1,4,1,0.67,2,1.33,3,2v2c0.667,0.33,1.333.67,2,1v2l4,3v2c1.667,1.33,3.333,2.67,5,4v2c2,1.67,4,3.33,6,5q4.5,4.995,9,10h2l5,6h2l2,3h2l2,3h2c0.333,0.67.667,1.33,1,2,1,0.33,2,.67,3,1v1h2c0.333,0.67.667,1.33,1,2h2c0.333,0.67.667,1.33,1,2,2,0.67,4,1.33,6,2,0.333,0.67.667,1.33,1,2h2v1h2v1h2v1h2v1h2v1h2v1c2,0.67,4,1.33,6,2v1c1.67,0.33,3.33.67,5,1v1h2v1c2,0.33,4,.67,6,1v1h2v1h3v1h3v1h3v1q5.505,1.005,11,2v1h5c9.35,2.89,20.28,3,33,3h83l236,3c0.06-7.09-2.03-12.11-4-17v-3h-1v-2h-1l-3-9h-1c-0.67-2-1.33-4-2-6h-1c-0.33-1-.67-2-1-3-0.67-.33-1.33-0.67-2-1v-2c-0.67-.33-1.33-0.67-2-1v-2h-1c-1.92-2.32-4.05-3.71-5-7-3.27-.85-4.73-3.11-7-5v-1h-2c-0.67-1-1.33-2-2-3-1.33-.33-2.67-0.67-4-1-0.33-.67-0.67-1.33-1-2h-2v-1h-2v-1h-3c-15.91-7.03-38.07-7.85-61-8-8.35-.05-18.9-2.28-27,0h-13q-10.5.495-21,1c-2.01.01-11,1-11,1v-1c-2.03-.93-0.47.63-2-1,6.4-.56,12.19-3.88,17-6h3v-1h2v-1h3v-1c1.33-.33,2.67-0.67,4-1v-1h3v-1c2-.67,4-1.33,6-2v-1h2v-1c2-.67,4-1.33,6-2,0.33-.67.67-1.33,1-2h2v-1h2v-1h2v-1h2v-1c1-.33,2-0.67,3-1,0.33-.67.67-1.33,1-2,1.33-.33,2.67-0.67,4-1,0.33-.67.67-1.33,1-2h2c0.33-.67.67-1.33,1-2h2c0.67-1,1.33-2,2-3h2c0.33-.67.67-1.33,1-2h2c0.67-1,1.33-2,2-3h2c0.67-1,1.33-2,2-3,1-.33,2-0.67,3-1q3-3.495,6-7h2q4.005-4.5,8-9c1.33-1,2.67-2,4-3v-2c2-1.67,4-3.33,6-5v-2c1.33-1,2.67-2,4-3v-2c1-.67,2-1.33,3-2v-2c1-.67,2-1.33,3-2v-2c0.67-.33,1.33-0.67,2-1,0.33-1,.67-2,1-3h1c0.33-1.33.67-2.67,1-4,0.67-.33,1.33-0.67,2-1,0.67-2,1.33-4,2-6,0.67-.33,1.33-0.67,2-1,0.67-2,1.33-4,2-6,0.67-.33,1.33-0.67,2-1,0.33-1.33.67-2.67,1-4,0.67-.33,1.33-0.67,2-1,0.33-1.67.67-3.33,1-5h1c0.33-1.33.67-2.67,1-4h1v-3h1v-3h1v-3h1v-3h1v-4h1v-4h1v-6h1v-6h1v-9h1v-9h1c1.32-4.74-.04-23.58-1-27q-0.495-7.995-1-16h-1c-0.33-3.33-.67-6.67-1-10h-1v-4h-1v-3h-1v-3h-1v-3h-1c-0.33-2-.67-4-1-6h-1c-0.33-1.67-.67-3.33-1-5h-1c-0.33-1.33-.67-2.67-1-4h-1v-3h-1c-0.33-1.33-.67-2.67-1-4h-1v-2c-0.67-.33-1.33-0.67-2-1-0.33-1.33-.67-2.67-1-4-0.67-.33-1.33-0.67-2-1v-2c-1-.67-2-1.33-3-2q-3.495-4-7-8h-2c-0.67-1-1.33-2-2-3h-2c-0.33-.667-0.67-1.333-1-2h-2c-0.33-.667-0.67-1.333-1-2l-4-1c-0.33-.667-0.67-1.333-1-2l-4-1c-0.33-.667-0.67-1.333-1-2l-9-3v-1l-4-1v-1q-13.005-3.5-26-7h-8v-1h-18c-4.84-1.311-17.05,0-25,0,0.72-2.762.28-2.237,3-3v-1l7-1v-1h5v-1h11v-1c4.64-1.285,16.8.093,20,1h16v1h11c9.02,2.587,21.13,2.383,30,5h6v1h6v1h5v1h5v1h4v1h4v1h3v1h3v1h3v1l6,1v1l4,1v1h2v1h3c0.33,0.667.67,1.333,1,2l6,2c0.33,0.667.67,1.333,1,2l4,1c0.67,1,1.33,2,2,3h2q4.005,4.5,8,9,3,2.5,6,5v2c1,0.67,2,1.33,3,2v2c0.67,0.33,1.33.67,2,1v2c0.67,0.33,1.33.67,2,1v2h1c0.33,1.33.67,2.67,1,4h1c0.33,2,.67,4,1,6h1v4h1q-0.495,7.995-1,16v43q-0.495,89.49-1,179c1.67,1,3.33,2,5,3,0.33,0.67.67,1.33,1,2h2c1,1.33,2,2.67,3,4,2,1.67,4,3.33,6,5v2c1,0.67,2,1.33,3,2v2c0.67,0.33,1.33.67,2,1v2c0.67,0.33,1.33.67,2,1v2h1c0.67,3,1.33,6,2,9h1v5c2.58,8.32,2.84,20.2,6,28q7.005,3.495,14,7h5c10.15,3.16,23.42,2.79,37,3,12.49,0.19,31.41-.05,47,0a39.242,39.242,0,0,0,1-8h-1v-5h-1v-2h-1v-3c-0.67-.33-1.33-0.67-2-1-0.33-1.33-.67-2.67-1-4-1-.67-2-1.33-3-2v-2c-1.33-1-2.67-2-4-3v-2q-3.495-3-7-6v-2c-2-1.67-4-3.33-6-5v-2c-1.33-1-2.67-2-4-3v-2c-0.67-.33-1.33-0.67-2-1q-3.495-7.005-7-14-0.495-7.005-1-14h-1v-26c-2.11-7.5-1-19.8-1-29q-0.495-63.495-1-127V976h-1v-2c-0.67-.333-1.33-0.667-2-1v-2c-0.67-.333-1.33-0.667-2-1-0.33-1.333-.67-2.667-1-4-0.67-.333-1.33-0.667-2-1-0.67-2-1.33-4-2-6h-1v-2h-1c-0.67-2-1.33-4-2-6h-1v-3h-1v-3h-1v-3h-1v-3h-1v-5h-1c-0.85-3.037,2.07-13.242,3-15h1v-2c0.67-.333,1.33-0.667,2-1v-2c0.67-.333,1.33-0.667,2-1v-2l3-2v-2q4.005-3.5,8-7v-2c0.67-.333,1.33-0.667,2-1v-1l3-1c3.14-2.845,5.2-6.79,9-9-1.04-2.868-2.2-22.682-1-27h1v-7h-1v-2h-1q-1.005-5.5-2-11h-1v-5h-1v-5h-1v-7h-1v-7h-1v-9h-1V796h-1V785h-1q-0.495-13-1-26h-1V744h-1c-1.41-5.062-.02-19.365,1-23V709h1v-9h1v-7h1q0.495-6.5,1-13h1v-5h1v-5h1v-5h1v-4h1v-3h1v-4h1c2.06-5.364,2.22-10.438,8-12,1.2-1.227,5.79-2.921,9-2v1h5l21,9v1h2v1h2v1h2v1l4,1c0.33,0.667.67,1.333,1,2l6,2c0.33,0.667.67,1.333,1,2l6,2c0.33,0.667.67,1.333,1,2l4,1c0.33,0.667.67,1.333,1,2h2c0.67,1,1.33,2,2,3h2c0.33,0.667.67,1.333,1,2h2c0.67,1,1.33,2,2,3h2c0.67,1,1.33,2,2,3h2c0.67,1,1.33,2,2,3h2c0.67,1,1.33,2,2,3h2l3,4h2l3,4h2l3,4h2c1.33,1.667,2.67,3.333,4,5h2c1.33,1.667,2.67,3.333,4,5,1.85,1.387,1.45-.447,3,2l21-7,9-1c3.85-1.24,7.85-2.671,13-3,0.38-25.866-3.2-52.937-10-72l-3-13h-1c-0.33-1.667-.67-3.333-1-5h-1c-0.33-1.333-.67-2.667-1-4h-1v-3h-1v-2h-1v-2c-0.67-.333-1.33-0.667-2-1-0.67-2-1.33-4-2-6-0.67-.333-1.33-0.667-2-1v-2h-1c-0.33-1-.67-2-1-3-0.67-.333-1.33-0.667-2-1v-2c-1.67-1.333-3.33-2.667-5-4v-2c-1.33-1-2.67-2-4-3v-1h-2l-6-7h-2c-1.33-1.667-2.67-3.333-4-5-1.33-1-2.67-2-4-3-0.33-.667-0.67-1.333-1-2h-2c-1.67-2-3.33-4-5-6-4.12-4.107-10.39-5.3-11-13,1.14-1.139.4,0,1-2h1v1q8.505,7.5,17,15l3,4h2c1.67,2,3.33,4,5,6,1.33,1,2.67,2,4,3v1h2q4.005,4.5,8,9c1.67,1.333,3.33,2.667,5,4,21.31,29.605,31.99,71.242,33,121,27.74-5.152,64.25-3.6,88,4h5v1h4v1l7,1v1h3v1h3v1h3v1c1.78,0.609,2.65.512,4,1v-1c1.35-1.078,1.84-2.745,3-4,0.67-.333,1.33-0.667,2-1v-2l3-2c0.33-.667.67-1.333,1-2h2l3-4h2c0.33-.667.67-1.333,1-2l3-1v-1h2c0.33-.667.67-1.333,1-2h2c0.33-.667.67-1.333,1-2h2c0.33-.667.67-1.333,1-2h2c0.33-.667.67-1.333,1-2h2v-1h2c0.33-.667.67-1.333,1-2l4-1c0.33-.667.67-1.333,1-2l4-1c0.33-.667.67-1.333,1-2l4-1c0.33-.667.67-1.333,1-2l4-1c0.33-.667.67-1.333,1-2h2v-1h2v-1h2v-1h2c0.33-.667.67-1.333,1-2l4-1v-1h2v-1h2c0.33-.667.67-1.333,1-2l6-2,15-9c1.67-.333,3.33-0.667,5-1v-1l10-3v1c11.12,1.261,11.79,15.439,15,25h1v4h1v4h1v5h1q0.495,6.5,1,13h1v7h1v9h1v10h1v11c2.16,7.753,2.17,39.254,0,47q-1.005,14.5-2,29-4.005,22-8,44h-1v3h-1v2h-1v7h1q0.495,12,1,24l12,11c0.33,0.667.67,1.333,1,2h2l3,4h1v2l3,2v2c0.67,0.333,1.33.667,2,1,0.33,1,.67,2,1,3h1c2.17,3.461,7.39,20.536,5,28h-1v3h-1v3h-1v3h-1v2h-1v3h-1c-0.67,2-1.33,4-2,6h-1c-0.33,1.333-.67,2.667-1,4-0.67.333-1.33,0.667-2,1-0.67,2-1.33,4-2,6h-1c-0.33,1-.67,2-1,3-0.67.333-1.33,0.667-2,1v2c-0.67.333-1.33,0.667-2,1v2h-1c-0.33,1-.67,2-1,3-0.67.333-1.33,0.667-2,1v2l-3,2v2l-3,2v2c-0.67.333-1.33,0.667-2,1-0.33,1-.67,2-1,3-1.67,1.333-3.33,2.67-5,4v2q-3.495,3-7,6-5.505,6-11,12h-2c-1.33,1.67-2.67,3.33-4,5h-2c-1,1.33-2,2.67-3,4h-2c-0.67,1-1.33,2-2,3h-2c-0.33.67-.67,1.33-1,2h-2c-0.67,1-1.33,2-2,3h-2c-0.33.67-.67,1.33-1,2h-2c-0.33.67-.67,1.33-1,2h-2c-0.33.67-.67,1.33-1,2h-2c-0.33.67-.67,1.33-1,2-1.33.33-2.67,0.67-4,1-0.33.67-.67,1.33-1,2h-4v1c-2,.67-4,1.33-6,2,0.1,5.76,1.68,9.83,3,14q1.005,6,2,12h1v4h1c0.33,3.67.67,7.33,1,11h1v17c0,12.73.91,27.92-1,39,12.89-2.49,28.57-8.78,43-4h4v1h2v1h3c0.33,0.67.67,1.33,1,2h2c0.33,0.67.67,1.33,1,2,2,1.67,4,3.33,6,5,8.26,12.35,7.99,44.16,3,60-0.33,3-.67,6-1,9h-1c-0.33,2.33-.67,4.67-1,7h-1c-0.67,3-1.33,6-2,9h-1v2h-1v3h-1c-0.33,1.33-.67,2.67-1,4h-1v3h-1v2h-1v2h-1v2h-1v2h-1c-0.33,1-.67,2-1,3h1c2.58,3.02,6.58,3.74,10,6,0.33,0.67.67,1.33,1,2,1.33,0.33,2.67.67,4,1,0.33,0.67.67,1.33,1,2h2c0.67,1,1.33,2,2,3h2c0.67,1,1.33,2,2,3h2c1.33,1.67,2.67,3.33,4,5q3.495,3,7,6c7.52,10.63,12.99,23.93,13,42,0,7.97.29,16.17-2,22h-1v3h-1v2h-1v3h-1c0.21-3.6,1.3-5.63,2-8v-8h1c1.43-5.14.05-15.39-1-19v-7h-1v5h-1c-0.02-19.93-13.16-34.61-25-43-0.67-1-1.33-2-2-3h-2c-0.33-.67-0.67-1.33-1-2h-2c-0.33-.67-0.67-1.33-1-2-1.33-.33-2.67-0.67-4-1-0.33-.67-0.67-1.33-1-2h-2c-0.33-.67-0.67-1.33-1-2h-2v-1h-2v-1c-1.37-.9-1.75-0.73-4-1v5c-3.88,2.56-5.32,8.15-8,12-1,.67-2,1.33-3,2v2c-1,.67-2,1.33-3,2v2c-1,.67-2,1.33-3,2v2c-1,.67-2,1.33-3,2v2h-1a12.846,12.846,0,0,0-3,6c2,0.67,4,1.33,6,2v1h2c0.33,0.67.67,1.33,1,2h2c6.07,4.05,11.09,9.69,11,20h-1c-0.33,1.67-.67,3.33-1,5-2.33,1.67-4.67,3.33-7,5h-4v1h-4v1h-5v1h-6v1h-6c-8.22,2.52-18.47,3.96-26,7h-3v1c-2,.67-4,1.33-6,2v1c-1.33.33-2.67,0.67-4,1-0.33.67-.67,1.33-1,2h-2c-3.47,2.46-12.48,14.91-10,23h1v4h1v2h1v2c0.67,0.33,1.33.67,2,1v2c1.33,1,2.67,2,4,3,0.33,0.67.67,1.33,1,2h2c0.67,1,1.33,2,2,3,1.33,0.33,2.67.67,4,1v1c2,0.33,4,.67,6,1v1c3.67,0.33,7.33.67,11,1,3.11,0.9,8.87,3.49,14,2v-1h6v-1h4v-1h3v-1c2.33-.33,4.67-0.67,7-1v-1h2v-1c2-.33,4-0.67,6-1v-1h2v-1c1.67-.33,3.33-0.67,5-1v-1h2v-1h2v-1c2-.67,4-1.33,6-2v-1h3v-1c2-.67,4-1.33,6-2v-1c2-.67,4-1.33,6-2v-1h2c0.33-.67.67-1.33,1-2h2v-1h2v-1h2v-1h2c0.33-.67.67-1.33,1-2h2c0.33-.67.67-1.33,1-2h2v-1c1.37-.93,1.77-0.67,4-1v1c-2,1.67-4,3.33-6,5-0.33.67-.67,1.33-1,2h-2c-0.67,1-1.33,2-2,3h-2c-0.33.67-.67,1.33-1,2-1.33.33-2.67,0.67-4,1-0.33.67-.67,1.33-1,2h-2v1h-2v1h-3v1h-2v1c-1.33.33-2.67,0.67-4,1v1h-3v1c-1.33.33-2.67,0.67-4,1v1h-3v1h-2v1c-1.67.33-3.33,0.67-5,1v1h-3v1h-2v1q-14.505,4.005-29,8c-5.77,1.64-25.62-.53-29-2v-1c-2-.67-4-1.33-6-2v-1h-2c-0.67-1-1.33-2-2-3q-16.005,1.005-32,2v-1h-7v-1h-4v-1h-4v-1c-3-.67-6-1.33-9-2v-1c-2-.67-4-1.33-6-2v-2c-1.33-.33-2.67-0.67-4-1-0.33-.67-0.67-1.33-1-2h-2q-4.005-3-8-6v-2h-1v-2h-1v-4c-3.05-9.08-3.04-20.47-3-33q3.495-44.49,7-89c-3.51.78-5.4,2.66-8,4h-2v1h-3v1c-4.51,1.79-21.64,6.21-29,4-7.21-2.17-13.04-5.77-19-9v7c3.51,4.14-.69,15.02,1,21,1.66,5.89-.7,15.97,1,22h1v12h1v2h1v2h1v2h1a59.24,59.24,0,0,1,6,19c-1.36,1.17-1.53,1.82-2,4-3.08.63-3.46,1.6-7,2q0.495,13.005,1,26h-1v3h-1c-0.33,2-.67,4-1,6h-1c-0.33,1.33-.67,2.67-1,4h-1v2c-1,.67-2,1.33-3,2v3c-2.33,1.67-4.67,3.33-7,5h-3v1h-2v1h-3v1h-3v1h-4v1h-4v1h-20q-12-.495-24-1v-1h-5v-1h-4v-1h-3v-1h-3c-0.33-.67-0.67-1.33-1-2h-2v-1a8.263,8.263,0,0,0-4-2v-2c-2.32-1.39-2.81-3.57-5-5-2.32-1.94-6.81-.84-10-2v-1c-7.57-2.92-19.99-7.2-22-15h-1v-3h-1v-1h1v-9h1v-2h1c0.33-1.33.67-2.67,1-4,1.33-1,2.67-2,4-3v-2q3.495-3,7-6c0.33-.67.67-1.33,1-2h2c1.67-2,3.33-4,5-6,1-.33,2-0.67,3-1v-2h1q-0.495-6.495-1-13h-1c-0.33-2-.67-4-1-6h-1c-0.67-2-1.33-4-2-6h-1v-2h-1c-0.33-1.33-.67-2.67-1-4h-1c-0.33-1-.67-2-1-3-0.67-.33-1.33-0.67-2-1v-2c-0.67-.33-1.33-0.67-2-1v-2c-1-.67-2-1.33-3-2v-2c-1-.67-2-1.33-3-2v-2c-1-.67-2-1.33-3-2v-2c-0.67-.33-1.33-0.67-2-1v-2c-0.67-.33-1.33-0.67-2-1v-2c-0.67-.33-1.33-0.67-2-1v-2c-0.67-.33-1.33-0.67-2-1v-2h-1v-2c-0.67-.33-1.33-0.67-2-1-0.67-2-1.33-4-2-6-0.67-.33-1.33-0.67-2-1v-2h-1v-2h-1v-2h-1v-2h-1v-2h-1v-2h-1v-2h-1v-2h-1c-0.67-2-1.33-4-2-6h-1v-3h-1c-0.33-1.33-.67-2.67-1-4h-1v-3h-1v-2h-1c-0.33-2-.67-4-1-6h-1v-3h-1v-3h-1v-3h-1v-3h-1q-1.005-6-2-12h-1q-0.495-7.005-1-14h-1c-1.48-5.12.96-13.86,2-17v-4h1v-3h1v-2h1v-2c0.67-.33,1.33-0.67,2-1v-2c0.67-.33,1.33-0.67,2-1,0.67-1,1.33-2,2-3h2v-1c2-.67,4-1.33,6-2v-1h4v-1h5v-1q6,0.495,12,1V1041h1v-15a19.085,19.085,0,0,1-7-3c-0.33-.67-0.67-1.33-1-2h-2c-0.33-.67-0.67-1.33-1-2h-2c-0.33-.67-0.67-1.33-1-2h-2c-1-1.33-2-2.67-3-4h-2c-1.33-1.67-2.67-3.33-4-5h-2q-4.5-5-9-10l-6-5v-2c-0.67-.333-1.33-0.667-2-1a22.3,22.3,0,0,1-4-6h-1v10c-2.17,2.483-1,18.94-1,24q0.495,32.49,1,65v124s0.83,0.08,1,2c1.16,13.43-2.28,30.33,1,42q0.495,12.495,1,25h1v3h1c0.67,2,1.33,4,2,6h1v2c1,0.67,2,1.33,3,2v2c1,0.67,2,1.33,3,2v2c2,1.67,4,3.33,6,5v2q3.495,3,7,6v2c1.67,1.33,3.33,2.67,5,4v2c0.67,0.33,1.33.67,2,1,5.7,8.51,9.37,17.32,7,31-13.64,2.62-30.76,2-47,2-14.45,0-29.05.35-40-3h-5c-6.94-2.24-17.13-5.91-19-13-2.92-3.02-1.86-10.21-2-16-0.1-4.38-1.5-12.59-3-16h-1v-2h-1v-2h-1v-2h-1v-2h-1v-2c-0.67-.33-1.33-0.67-2-1v-2c-0.67-.33-1.33-0.67-2-1v-2c-1-.67-2-1.33-3-2q-3.495-4.005-7-8l-10-7v-16c1.52-1.72.96-5.8,1-9q0.495-7.5,1-15v-9h1v-47c0-4.83-.17-18.93-2-21l-6,21h-1v2h-1v3h-1c-0.33,1.33-.67,2.67-1,4h-1v2c-0.67.33-1.33,0.67-2,1-0.33,1.33-.67,2.67-1,4h-1c-0.33,1-.67,2-1,3-0.67.33-1.33,0.67-2,1v2c-0.67.33-1.33,0.67-2,1-0.33,1-.67,2-1,3-1.67,1.33-3.33,2.67-5,4v2q-4.5,4.005-9,8c-1,1.33-2,2.67-3,4h-2c-1.33,1.67-2.67,3.33-4,5h-2c-0.33.67-.67,1.33-1,2h-1c-0.33.67-.67,1.33-1,2h-2c-0.67,1-1.33,2-2,3-1,.33-2,0.67-3,1-0.33.67-.67,1.33-1,2h-2c-0.33.67-.67,1.33-1,2-1,.33-2,0.67-3,1v1h-2c-0.33.67-.67,1.33-1,2h-2c-0.33.67-.67,1.33-1,2h-2c-0.33.67-.67,1.33-1,2-1.33.33-2.67,0.67-4,1-0.33.67-.67,1.33-1,2-1.33.33-2.67,0.67-4,1-0.33.67-.67,1.33-1,2-2,.67-4,1.33-6,2-2.51,1.38-3.46,3.22-7,4v1h7c2.7,2.3,8.96.8,13,2,6.64,1.97,15.56,3.01,22,5h5v1c3,0.33,6,.67,9,1v1h4v1h4v1h3v1c3.33,0.67,6.67,1.33,10,2v1h2v1l9,3c12.36,7.82,17.78,23.03,23,38,0.33,3,.67,6,1,9h1q1.005,7.995,2,16h-1c-0.33,1.67-.67,3.33-1,5h-36c0.45,3.84,1.66,6.39-1,9-2.51,2.77-6.89,2-12,2h-28q-40.5-.495-81-1c-12.52,0-31.56,1.93-42-1q-92.49-.495-185-1v-1c-3.33-.33-6.67-0.67-10-1v-1h-4v-1h-4v-1h-3v-1h-4v-1h-3v-1h-3v-1h-3v-1h-3v-1h-2v-1h-3v-1h-2v-1h-3v-1h-2v-1h-3v-1c-2-.67-4-1.33-6-2v-1h-2v-1h-2v-1c-2-.67-4-1.33-6-2-0.333-.67-0.667-1.33-1-2-1.333-.33-2.667-0.67-4-1-0.333-.67-0.667-1.33-1-2-1.333-.33-2.667-0.67-4-1-0.333-.67-0.667-1.33-1-2h-2v-1c-1-.33-2-0.67-3-1-0.333-.67-0.667-1.33-1-2h-2l-2-3h-2l-2-3h-2c-1-1.33-2-2.67-3-4h-2q-3-3.495-6-7h-2l-5-6c-0.667-.33-1.333-0.67-2-1v-2l-7-6q-0.5-1.5-1-3c-1-.67-2-1.33-3-2v-2c-1-.67-2-1.33-3-2v-2c-0.667-.33-1.333-0.67-2-1v-2c-1-.67-2-1.33-3-2-0.333-1.33-.667-2.67-1-4-0.667-.33-1.333-0.67-2-1q-0.5-1.5-1-3h-1v-2h-1v-2h-1v-2h-1v-2h-1v-2h-1v-2h-1v-2h-1v-2h-1q-1-3-2-6h-1v-3h-1v-2h-1v-3h-1v-5h-1v-3h-1v-3h-1v-3h-1q-0.5-4.5-1-9h-1v-3h-1v-5h-1v-4h-1v-5h-1v-5h-1v-6h-1v-8h-1v-13h-1c-1.329-4.78.058-17.66,1-21v-9q1-7.995,2-16,4.5-16.005,9-32,7-13.995,14-28c0.667-.33,1.333-0.67,2-1,0.333-1.33.667-2.67,1-4,1-.67,2-1.33,3-2v-2c0.667-.33,1.333-0.67,2-1v-2c1-.67,2-1.33,3-2v-2l10-9c4.589-4.59,6.576-8.97,16-9,1.339,2.52,1.99,3.5,2,8-32.222,26.31-37.8,101.69-18,146h1q1,3,2,6h1c0.333,1.33.667,2.67,1,4,0.667,0.33,1.333.67,2,1,0.333,1.33.667,2.67,1,4,1,0.67,2,1.33,3,2v2c1,0.67,2,1.33,3,2v2c1.667,1.33,3.333,2.67,5,4v2c0.667,0.33,1.333.67,2,1,1,1.33,2,2.67,3,4h2c1.333,1.67,2.667,3.33,4,5h2l2,3h2l2,3h2c0.333,0.67.667,1.33,1,2,1.333,0.33,2.667.67,4,1,0.333,0.67.667,1.33,1,2h2v1h2v1h2v1h2v1h2v1c2,0.67,4,1.33,6,2v1h3v1h2v1h3v1h3v1h3v1h4v1h4v1h5v1h7v1h12c1.72,0.48,6.76,1.91,10,1v-1h13a115.159,115.159,0,0,1,19-4q-0.495-7.005-1-14h-1v-14h-1v-30c0-25.96.75-53.92,7-74v-5h1v-5h1v-4h1v-4h1v-3h1v-4h1v-3h1v-2h1v-3h1v-2h1v-3h1c0.33-1.33.67-2.67,1-4h1v-3h1c0.67-2,1.33-4,2-6h1v-2h1v-2h1v-2h1v-2h1v-2h1v-2h1v-2h1v-2c0.67-.33,1.33-0.67,2-1v-2h1v-2h1v-2h1v-2c0.67-.33,1.33-0.67,2-1v-2h1v-2c0.67-.33,1.33-0.67,2-1,0.67-2,1.33-4,2-6h1c0.33-1,.67-2,1-3,0.67-.33,1.33-0.67,2-1,0.33-1.33.67-2.67,1-4,0.67-.33,1.33-0.67,2-1,0.33-1.33.67-2.67,1-4h1c0.33-1,.67-2,1-3,0.67-.333,1.33-0.667,2-1,0.33-1.333.67-2.667,1-4,0.67-.333,1.33-0.667,2-1v-2c0.67-.333,1.33-0.667,2-1v-2c0.67-.333,1.33-0.667,2-1v-2c0.67-.333,1.33-0.667,2-1,0.33-1.333.67-2.667,1-4,0.67-.333,1.33-0.667,2-1v-2h1c0.33-1,.67-2,1-3,0.67-.333,1.33-0.667,2-1v-2h1c0.33-1,.67-2,1-3,0.67-.333,1.33-0.667,2-1v-2l3-2v-2c0.67-.333,1.33-0.667,2-1,0.33-1.333.67-2.667,1-4h1c0.33-1,.67-2,1-3,0.67-.333,1.33-0.667,2-1v-2c0.67-.333,1.33-0.667,2-1v-2l3-2v-2c0.67-.333,1.33-0.667,2-1v-2h1c0.33-1,.67-2,1-3,0.67-.333,1.33-0.667,2-1v-2c1.33-1,2.67-2,4-3v-2c0.67-.333,1.33-0.667,2-1v-2c0.67-.333,1.33-0.667,2-1v-2l3-2v-2h1c0.33-1,.67-2,1-3,0.67-.333,1.33-0.667,2-1v-2l3-2v-2h1c0.33-1,.67-2,1-3,0.67-.333,1.33-0.667,2-1v-2l3-2v-2h1c0.33-1,.67-2,1-3,0.67-.333,1.33-0.667,2-1v-2l3-2v-2h1c0.33-1,.67-2,1-3,0.67-.333,1.33-0.667,2-1v-2l3-2v-2c0.67-.333,1.33-0.667,2-1,0.33-1,.67-2,1-3h1v-2c0.67-.333,1.33-0.667,2-1v-2c0.67-.333,1.33-0.667,2-1v-2l3-2v-2c0.67-.333,1.33-0.667,2-1,0.33-1,.67-2,1-3h1v-2c0.67-.333,1.33-0.667,2-1,0.33-1.333.67-2.667,1-4,0.67-.333,1.33-0.667,2-1v-2c0.67-.333,1.33-0.667,2-1v-2c0.67-.333,1.33-0.667,2-1v-2c0.67-.333,1.33-0.667,2-1,0.33-1.333.67-2.667,1-4,0.67-.333,1.33-0.667,2-1,0.67-2,1.33-4,2-6,0.67-.333,1.33-0.667,2-1,0.33-1.333.67-2.667,1-4h1c0.67-2,1.33-4,2-6h1v-3h1c0.33-1.333.67-2.667,1-4h1c0.33-1.667.67-3.333,1-5h1v-3h1v-2h1q10.5-31,21-62v-4h1v-3h1v-4c4.73-13.077,8.43-28.565,13-42q1.995-10,4-20h1v-3h1c0.33-3,.67-6,1-9,3.52-10.377,5.61-23.389,9-34q3-17.5,6-35V575h1q0.495-10.5,1-21V543h1c1.55-5.48-.37-14.139,1-19,1.55-5.481-.37-14.139,1-19V488h1V472h1V461c0.17-1.921,1-2,1-2V448h1v-8h1v-7h1v-6l3-9h1v-2h1q1.005-10.5,2-21c4.06-13.04,7.15-28.072,11-41,1.6-5.387-1.92-12.751-3-16-0.33-2.333-.67-4.667-1-7h-1v-5h-1v-4h-1v-5c-3.58-11.888-5.93-31.724-2-45v-6h1v-3h1v-3h1v-3h1c0.33-2.333.67-4.667,1-7h1v-2h1c0.33-2,.67-4,1-6h1c0.33-1.333.67-2.667,1-4h1v-3h1v-2h1v-3h1c0.33-1.333.67-2.667,1-4h1v-2h1v-3h1v-2h1c0.33-1.333.67-2.667,1-4h1v-3h1v-2h1c0.67-2,1.33-4,2-6h1v-3h1v-2h1v-2h1c0.67-2,1.33-4,2-6h1v-3h1c0.67-2,1.33-4,2-6h1v-2h1v-2h1v-2h1v-2h1v-2h1v-2h1v-3h1c0.67-2,1.33-4,2-6h1v-2h1v-2h1v-2h1v-2h1v-2h1v-2h1v-2h1v-2h1v-2h1v-2h1v-3h1c0.33-1.333.67-2.667,1-4h1c0.33-1.333.67-2.667,1-4h1c0.33-1.333.67-2.667,1-4,2.2-4.115,4.94-8.544,7-13h-1q-4.005,4.5-8,9c-0.67.333-1.33,0.667-2,1v2q-6.495,6-13,12c-0.33,1-.67,2-1,3q-4.005,3.5-8,7v2l-3,2v1c-0.67.333-1.33,0.667-2,1v2l-6,5v2c-1.33,1-2.67,2-4,3v2c-1.33,1-2.67,2-4,3v2c-1.67,1.333-3.33,2.667-5,4v2q-3.495,3-7,6v1c-0.67.333-1.33,0.667-2,1v2q-5.505,5-11,10c-1.67,2-3.33,4-5,6h-2l-9,10h-2c-1.67,2-3.33,4-5,6h-2c-1.33,1.667-2.67,3.333-4,5h-2c-0.67,1-1.33,2-2,3h-2c-0.67,1-1.33,2-2,3h-2c-0.67,1-1.33,2-2,3h-2c-0.33.667-.67,1.333-1,2h-2c-0.33.667-.67,1.333-1,2l-4,1c-0.33.667-.67,1.333-1,2h-2v1l-4,1v1h-3v1h-2v1c-2.88,1.116-10.37,1.192-13,0l-6-5v-2c-0.67-.333-1.33-0.667-2-1v-2h-1v-3h-1v-2h-1q-1.005-5-2-10c-4.28-12.813-4.81-32.072-4-50a107.107,107.107,0,0,1,5-26c0.33-2.333.67-4.667,1-7h1v-3h1v-4h1v-2h1c0.33-2,.67-4,1-6h1v-2h1v-3h1c0.67-2,1.33-4,2-6h1v-2h1v-2h1c0.67-2,1.33-4,2-6,0.67-.333,1.33-0.667,2-1,0.33-1.333.67-2.667,1-4h1c0.33-1,.67-2,1-3,0.67-.333,1.33-0.667,2-1V91c0.67-.333,1.33-0.667,2-1V88l3-2V84l3-2V80c1.67-1.333,3.33-2.667,5-4V74q4.995-4.5,10-9c1.33-1.666,2.67-3.334,4-5h2c1.33-1.666,2.67-3.334,4-5h2c0.33-.667.67-1.333,1-2h1c0.33-.667.67-1.333,1-2h2c0.33-.667.67-1.333,1-2h2c0.67-1,1.33-2,2-3h2c0.33-.667.67-1.333,1-2l4-1c0.33-.667.67-1.333,1-2l4-1c0.33-.667.67-1.333,1-2l4-1V36h2V35l6-2V32h3V31l4-1V29l6-1V27h2V26h3V25h4V24h3V23h3V22l9-1V20h4V19h6V18h6V17h9c7.47-2.085,36.54-2.1,44,0h10v1h7c5.11,1.474,12.17,2.508,17,4h5v1h4v1h4v1h4v1h4v1h3v1h4v1h3v1h3v1h3v1h3v1c4.53,1.339,14.82-5.634,18-7l10-2c9.78-3.427,20.4-5,34-5h18v1h8v1h7c5.23,1.552,12,3.311,17,5h4c21.21,7.556,42.34,15.9,60,27l6,2c0.33,0.667.67,1.333,1,2h2v1h2v1l3,1c0.33,0.667.67,1.333,1,2h2c0.33,0.667.67,1.333,1,2h2c0.67,1,1.33,2,2,3h2c0.67,1,1.33,2,2,3h2c0.67,1,1.33,2,2,3h2q3.495,4,7,8h2c0.33,0.667.67,1.333,1,2l3,2v2q3.495,3,7,6v2l3,2v2l3,2c0.33,1.333.67,2.667,1,4,0.67,0.333,1.33.667,2,1,0.33,1,.67,2,1,3h1c0.67,2,1.33,4,2,6,0.67,0.333,1.33.667,2,1v2h1c0.33,1.333.67,2.667,1,4h1v3h1v2h1v2h1Q1771,134.5,1773,140Zm170,709q3.495-16.5,7-33,1.005-11,2-22h1V784h1V771h1V756q-0.495-18-1-36h-1V710h-1v-9h-1v-7h-1v-7h-1v-6h-1c-0.33-3.333-.67-6.667-1-10h-1v-4h-1v-4h-1v-3h-1v-3h-1v-3h-1v-2a16.207,16.207,0,0,0-5-5v-1h-5v1c-1.67.333-3.33,0.667-5,1v1c-1.67.333-3.33,0.667-5,1v1l-6,2v1h-2v1l-4,1c-0.33.667-.67,1.333-1,2h-2v1h-2v1h-2v1h-2v1l-4,1c-0.33.667-.67,1.333-1,2h-2v1h-2v1h-2v1h-2c-0.33.667-.67,1.333-1,2l-6,2c-0.33.667-.67,1.333-1,2l-4,1c-0.33.667-.67,1.333-1,2l-4,1c-0.33.667-.67,1.333-1,2l-4,1v1l-3,1c-0.33.667-.67,1.333-1,2l-4,1v1l-3,1c-0.33.667-.67,1.333-1,2h-2c-0.33.667-.67,1.333-1,2h-2c-0.33.667-.67,1.333-1,2h-2c-0.67,1-1.33,2-2,3h-2c-0.67,1-1.33,2-2,3h-2c-0.33.667-.67,1.333-1,2-1.33,1-2.67,2-4,3v2l-3,2c-2.37,2.648-.59,3.71-5,5v-1l-6-1v-1h-3v-1h-3v-1h-3v-1h-3v-1h-4v-1l-8-1v-1h-5c-26.87-8.255-67.04-7.277-94,0a2.793,2.793,0,0,1-3-1h-1v1h-5v1h-5v1h-4v1h-3v1l-7,1v1h-2v1l-9,2c-2.07-3.446-3.08-2.886-6-5-1.33-1.667-2.67-3.333-4-5h-2l-3-4h-2l-3-4h-2l-3-4h-2l-3-4h-2c-0.67-1-1.33-2-2-3h-2c-0.67-1-1.33-2-2-3h-2c-0.67-1-1.33-2-2-3h-2c-0.67-1-1.33-2-2-3h-2c-0.33-.667-0.67-1.333-1-2l-3-1v-1h-2c-0.33-.667-0.67-1.333-1-2l-4-1c-0.33-.667-0.67-1.333-1-2l-6-2c-0.33-.667-0.67-1.333-1-2l-6-2c-0.33-.667-0.67-1.333-1-2h-2v-1h-2v-1h-2v-1h-2c-9.5-5.069-16.17-9.816-31-10l-3,4h-1v3h-1v2h-1c-0.33,2-.67,4-1,6h-1q-3.495,19-7,38-0.495,9.5-1,19h-1c-1.44,5.111-.08,28.186,1,32v14h1v13h1q1.5,20.5,3,41h1v7h1v6h1v5h1v5h1c0.33,2.333.67,4.667,1,7h1v2h1v2h1q-0.495,7-1,14h-1c-1.7,6,.58,22.734-1,25-2.06,3.384-6.25,5.252-9,8l-6,7-3,2v2c-1.33,1-2.67,2-4,3v2l-3,2c-0.33,1.333-.67,2.667-1,4-0.67.333-1.33,0.667-2,1v3h-1v2h-1c-1.43,4.053,1.94,17.569,3,20h1c0.33,1.333.67,2.667,1,4h1v3h1c0.33,1.333.67,2.667,1,4h1v2c0.67,0.333,1.33.667,2,1,0.67,2,1.33,4,2,6,0.67,0.333,1.33.667,2,1v2h1c0.33,1,.67,2,1,3,0.67,0.333,1.33.667,2,1v2l3,2v2l3,2v2c1.67,1.333,3.33,2.667,5,4v2l9,8q4.005,4.5,8,9h2c1,1.33,2,2.67,3,4h2c0.67,1,1.33,2,2,3h2c0.67,1,1.33,2,2,3h2c0.33,0.67.67,1.33,1,2h2c0.33,0.67.67,1.33,1,2,1.33,0.33,2.67.67,4,1,0.33,0.67.67,1.33,1,2,1.33,0.33,2.67.67,4,1,17.12,10.82,37.38,18.66,58,26h4v1h3v1q5.505,1.005,11,2v1h4v1q7.005,1.005,14,2v1q9,1.005,18,2v1h6v1h7v1h10v1h17v1c4.66,1.3,22.66-.06,26-1h20c10.04-2.84,24.09-2.15,34-5q6.495-.495,13-1v-1q6-.495,12-1v-1h5v-1h5v-1h4v-1h5v-1h4v-1c3.33-.67,6.67-1.33,10-2v-1h2c0.33-.67.67-1.33,1-2,2-.67,4-1.33,6-2,0.33-.67.67-1.33,1-2h2c0.33-.67.67-1.33,1-2h2c0.33-.67.67-1.33,1-2h2c0.33-.67.67-1.33,1-2h2v-1c1-.33,2-0.67,3-1,0.33-.67.67-1.33,1-2h2c0.67-1,1.33-2,2-3h2c0.67-1,1.33-2,2-3h2c0.67-1,1.33-2,2-3h2c1.33-1.67,2.67-3.33,4-5h2q5.505-6,11-12,4.5-4,9-8v-2c1.67-1.333,3.33-2.667,5-4,0.33-1,.67-2,1-3,0.67-.333,1.33-0.667,2-1v-2l3-2c0.33-1,.67-2,1-3,0.67-.333,1.33-0.667,2-1v-2c0.67-.333,1.33-0.667,2-1,0.33-1,.67-2,1-3h1v-2c0.67-.333,1.33-0.667,2-1,0.33-1.333.67-2.667,1-4,0.67-.333,1.33-0.667,2-1,0.33-1.333.67-2.667,1-4,0.67-.333,1.33-0.667,2-1,0.33-1.333.67-2.667,1-4h1v-2h1c0.67-2,1.33-4,2-6h1v-3h1v-2h1v-3c1.07-2.834,3.53-8.879,2-14h-1v-4h-1v-3h-1c-0.67-2-1.33-4-2-6h-1v-2l-3-2v-2q-3.495-3-7-6c-1.33-1.667-2.67-3.333-4-5h-2c-1.33-1.667-2.67-3.333-4-5-0.67-.333-1.33-0.667-2-1v-2l-3-2V874q-1.995-13.5-4-27h1C1941.13,848.719,1940.63,848.355,1943,849Zm-622,372h-2c-3.68,6.17-10.18,9.87-16,14-0.67,1-1.33,2-2,3h-2c-0.67,1-1.33,2-2,3h-2c-0.67,1-1.33,2-2,3h-2c-0.33.67-.67,1.33-1,2h-2c-0.33.67-.67,1.33-1,2-1,.33-2,0.67-3,1v1c-1.33.33-2.67,0.67-4,1-0.33.67-.67,1.33-1,2-1.33.33-2.67,0.67-4,1-0.33.67-.67,1.33-1,2h-2v1h-2v1h-2v1h-2v1h-2v1h-2v1h-2c-3.2,1.71-5.78,4.05-10,5v1h59c2.95,2.52,9.58-.24,14,1v1h10v1h8v1h4v1h4v1h4l18,9c0.67,1,1.33,2,2,3h2q3.495,4.005,7,8c1.33,1,2.67,2,4,3v2c1,0.67,2,1.33,3,2v2c1,0.67,2,1.33,3,2,0.33,1.33.67,2.67,1,4,0.67,0.33,1.33.67,2,1,0.33,1.33.67,2.67,1,4h1c0.33,1.33.67,2.67,1,4h1v3h1v2h1q1.995,7.005,4,14,6.495,0.495,13,1v-1h8v1h8v-1h6c-0.38-13.79-4.67-26.12-9-36v-3h-1v-2h-1v-2c-0.67-.33-1.33-0.67-2-1-0.33-1.33-.67-2.67-1-4-1-.67-2-1.33-3-2v-2h-1c-0.67-1-1.33-2-2-3h-2c-0.33-.67-0.67-1.33-1-2-1.33-.33-2.67-0.67-4-1v-1c-2-.67-4-1.33-6-2v-1l-13-3v-1h-3v-1h-4c-8.66-2.92-19.95-4.3-29-7h-6c-8.24-2.43-19.54-2.58-28-5-4.43-1.27-6.7,1.18-9-2,4.15-.87,6.85-3.32,10-5h2v-1h2v-1h2v-1h2v-1h2v-1h2c0.33-.67.67-1.33,1-2h2v-1c1.33-.33,2.67-0.67,4-1,0.33-.67.67-1.33,1-2,1.33-.33,2.67-0.67,4-1,0.33-.67.67-1.33,1-2h2c0.33-.67.67-1.33,1-2h2c0.33-.67.67-1.33,1-2h2c0.33-.67.67-1.33,1-2h2c0.33-.67.67-1.33,1-2h2c0.67-1,1.33-2,2-3h2c0.33-.67.67-1.33,1-2h2c1-1.33,2-2.67,3-4h2c1.67-2,3.33-4,5-6h2c1.67-2,3.33-4,5-6q4.5-4.005,9-8v-2c1.33-1,2.67-2,4-3v-2c1-.67,2-1.33,3-2v-2c0.67-.33,1.33-0.67,2-1v-2c0.67-.33,1.33-0.67,2-1,0.67-2,1.33-4,2-6h1c0.67-2,1.33-4,2-6h1c0.67-3,1.33-6,2-9h1v-3h1v-3h1v-3h1v-3h1v-3h1q1.005-6,2-12h1v-55q1.005-22.995,2-46h-1q-1.005-6-2-12h-1c-0.67-2-1.33-4-2-6h-1v-2h-1c-0.33-1.33-.67-2.67-1-4-0.67-.33-1.33-0.67-2-1v-2c-1-.67-2-1.33-3-2v-2c-1-.67-2-1.33-3-2q-3.495-4-7-8h-2c-0.67-1-1.33-2-2-3l-3-1c-0.33-.667-0.67-1.333-1-2l-4-1c-0.33-.667-0.67-1.333-1-2l-4-1v-1l-6-2v-1h-3v-1h-2v-1l-6-1c-12.59-5.386-29.79-8.379-46-10l-27-4h-7v1l18,4v1h2v1h3v1l4,1v1l4,1v1l6,2c0.33,0.667.67,1.333,1,2h2c0.33,0.667.67,1.333,1,2h2c0.67,1,1.33,2,2,3h2l3,4h2c1.67,2,3.33,4,5,6,0.67,0.333,1.33.667,2,1v2c1.67,1.333,3.33,2.67,5,4v2c0.67,0.33,1.33.67,2,1,0.33,1,.67,2,1,3h1v2c0.67,0.33,1.33.67,2,1v2c0.67,0.33,1.33.67,2,1,0.33,1.33.67,2.67,1,4h1c0.67,2,1.33,4,2,6h1v3h1v2h1v3h1v3h1v3h1v3h1q2.505,13.005,5,26v11h1c1.79,6.47-.72,24.55-2,29q-0.495,6.495-1,13-4.995,17.505-10,35h-1v2h-1c-0.33,1.67-.67,3.33-1,5h-1c-0.67,2-1.33,4-2,6h-1v2h-1v2h-1c-0.67,2-1.33,4-2,6-0.67.33-1.33,0.67-2,1-0.33,1.33-.67,2.67-1,4-0.67.33-1.33,0.67-2,1-0.33,1.33-.67,2.67-1,4-0.67.33-1.33,0.67-2,1v2c-1,.67-2,1.33-3,2v2c-0.67.33-1.33,0.67-2,1v2c-1,.67-2,1.33-3,2v2c-1,.67-2,1.33-3,2v1c-0.67.33-1.33,0.67-2,1v2c-0.67.33-1.33,0.67-2,1C1328.36,1211.79,1322.02,1217.38,1321,1221Zm260-191q-0.495,55.995-1,112c6,0.02,9.19,1.98,14,3q-0.495-12.495-1-25,2.505-15.495,5-31h1v-4h1v-4h1v-5h1v-4h1v-4h1v-3h1c0.33-2.33.67-4.67,1-7h1c0.33-2.33.67-4.67,1-7h1v-5c0.67-.33,1.33-0.67,2-1v-2c-1.67-.33-3.33-0.67-5-1v-1h-3v-1h-2v-1h-2v-1h-2v-1h-2v-1h-2v-1h-2C1587.74,1033.26,1585.31,1031.01,1581,1030Zm19,122q-7.005-1.995-14-4v-1c-3.33-.33-6.67-0.67-10-1v-1c-4.23-1.19-12.3.12-15,1h-4v1c-1.33.33-2.67,0.67-4,1v1h-2v1c-1.67,1.33-3.33,2.67-5,4v2c-0.67.33-1.33,0.67-2,1-1.73,3.29-4.83,21.65-3,28h1v7q4.005,13.995,8,28h1v2h1v3h1v2h1v3h1v2h1c0.33,1.67.67,3.33,1,5h1c0.67,2,1.33,4,2,6h1v2h1v2h1v2h1v2h1v2h1v2c0.67,0.33,1.33.67,2,1,0.67,2,1.33,4,2,6,0.67,0.33,1.33.67,2,1,0.33,1.33.67,2.67,1,4h1c0.33,1,.67,2,1,3,0.67,0.33,1.33.67,2,1v2h1c0.33,1,.67,2,1,3,0.67,0.33,1.33.67,2,1v2c1,0.67,2,1.33,3,2v2c1,0.67,2,1.33,3,2v2c1,0.67,2,1.33,3,2v2c0.67,0.33,1.33.67,2,1v2c0.67,0.33,1.33.67,2,1,0.33,1,.67,2,1,3h1c0.67,2,1.33,4,2,6,0.67,0.33,1.33.67,2,1,0.33,1.67.67,3.33,1,5h1c0.33,1.33.67,2.67,1,4h1v3h1v4h1v5h1c-0.33,3.33-.67,6.67-1,10q-3.495,3-7,6c-0.33.67-.67,1.33-1,2-7.64,5.54-16.88,12.18-18,24h1c0.33,1.67.67,3.33,1,5,10.3,5.52,14.42,11.82,31,12v2c1.26,1.07,1.05,1.77,2,3h1v2c1.33,1,2.67,2,4,3v1h2c0.33,0.67.67,1.33,1,2h3v1h2v1c3.33,0.33,6.67.67,10,1v1h9c8.95,2.48,28.32,1.5,36-1h4v-1h3v-1h2v-1h3v-1h2v-1h2c0.33-.67.67-1.33,1-2,1-.33,2-0.67,3-1v-2c0.67-.33,1.33-0.67,2-1l3-9h1v-2h1v-32h-1v-24h-1v-7c-0.02-7.15.56-16.47-1-22-1.71-6.06.53-15.55-1-21v-8a90.583,90.583,0,0,0-1-15h1c1.67,2.1,3.69,2.44,6,4,0.33,0.67.67,1.33,1,2,1,0.33,2,.67,3,1v1c1.33,0.33,2.67.67,4,1v1c1.33,0.33,2.67.67,4,1v1c2.27,0.89,14.59,3,18,2v-1h5v-1h4v-1c2-.33,4-0.67,6-1v-1c1.33-.33,2.67-0.67,4-1v-1h3v-1c2-.67,4-1.33,6-2,0.33-.67.67-1.33,1-2h2v-1c1-.33,2-0.67,3-1v13c-2.25,2.59.1,8.03-1,12h-1v12h-1v11h-1v12h-1v12h-1v14c-1.77,6.38-1,16.97-1,25v10h1v6c0.77,2.49,2.39,5.16,3,8,1.24,0.66,1.38,1.59,2,2h2c0.33,0.67.67,1.33,1,2,1.33,0.33,2.67.67,4,1,0.33,0.67.67,1.33,1,2h2v1h2v1h3v1h2v1h3v1h3v1h3v1h3v1h5v1h7q12-.495,24-1v-1c-6.48-5.37-9.51-22.05-4-31,0.67-.33,1.33-0.67,2-1v-2c1-.67,2-1.33,3-2,1.33-1.67,2.67-3.33,4-5h2c0.67-1,1.33-2,2-3h2v-1c2-.67,4-1.33,6-2v-1c3-.67,6-1.33,9-2v-1c3-.33,6-0.67,9-1,5.68-1.78,12.6-3.85,20-4v-2c-1.95-.42-13.46-7.87-14-9v-4h1v-2c0.67-.33,1.33-0.67,2-1v-2h1v-2c1-.67,2-1.33,3-2v-2h1c0.33-1,.67-2,1-3,0.67-.33,1.33-0.67,2-1v-2c1-.67,2-1.33,3-2v-2c0.67-.33,1.33-0.67,2-1v-2c1-.67,2-1.33,3-2v-2c0.67-.33,1.33-0.67,2-1,0.33-1,.67-2,1-3h1v-2c0.67-.33,1.33-0.67,2-1v-2c0.67-.33,1.33-0.67,2-1v-2c0.67-.33,1.33-0.67,2-1v-2c0.67-.33,1.33-0.67,2-1v-2c0.67-.33,1.33-0.67,2-1,0.33-1,.67-2,1-3h1c0.33-1.33.67-2.67,1-4,0.67-.33,1.33-0.67,2-1,0.33-1.33.67-2.67,1-4,0.67-.33,1.33-0.67,2-1,0.33-1.33.67-2.67,1-4,0.67-.33,1.33-0.67,2-1,0.67-2,1.33-4,2-6h1v-2h1v-2h1c0.67-2,1.33-4,2-6h1v-3h1v-2h1q4.005-13.995,8-28,1.005-8.505,2-17c0.32-13.31.05-28.02-5-36-0.67-.33-1.33-0.67-2-1v-2h-1c-0.67-1-1.33-2-2-3-15-10.18-44.3-3.2-58,3v-18c2.15-2.37,1-19.02,1-24,0-16.51-1.28-28.72-5-41v-6h-1v-4h-1c-1.16-3.45-.82-6.96-2-10q-16.5,4.005-33,8h-6c-8.95,2.68-20.77,3.35-30,6h-7v1h-8v1h-10v1h-13v1h-33v-1h-10q-25.995-5.505-52-11v-1h-3v-1c-2.33-.33-4.67-0.67-7-1v-1h-4v-1c-2.67-.33-5.33-0.67-8-1-9.44-3.35-18.2-6.84-31-7-0.84,1.13.13,0.15-1,1-0.08,5.36-1.72,8.22-3,12-0.33,2.33-.67,4.67-1,7h-1c-0.33,2.67-.67,5.33-1,8h-1v4h-1v4h-1c-0.33,3-.67,6-1,9h-1v5h-1v6h-1v6c-1.32,4.47-3.83,22.35-2,29h1Q1599.5,1145.495,1600,1152Zm297,162a8.134,8.134,0,0,1-2,4h-1v2c-0.67.33-1.33,0.67-2,1q-2.505,4.5-5,9h1c2.13,2.57,5.18,3.04,8,5,0.33,0.67.67,1.33,1,2,1,0.33,2,.67,3,1v1a7.929,7.929,0,0,0,4,2v-1h5v-1c7.18-2.72,9.19-.6,9-11-1.14-1.14-.4,0-1-2-2.42-1.4-3.29-3.79-5-5h-2C1906.01,1318.31,1903.11,1314.7,1897,1314Zm-183,33h3v-1h1v-5c-2.56-2.71-1.53-6.72-5-9v1C1714.99,1335.17,1714.1,1343.05,1714,1347Z"/>
</svg>
