<svg xmlns="http://www.w3.org/2000/svg" width="1000.054" height="581.34" viewBox="0 0 2964 1723">
  <defs>
    <style>
      .cls-1 {
        fill: #fff;
        fill-rule: evenodd;
      }
    </style>
  </defs>
  <path id="signouticonalaa" class="cls-1" d="M1668,21V321H986V1402h682v300H753v-1c-3.333-.33-6.667-0.67-10-1v-1h-3v-1h-3v-1h-3v-1h-3v-1c-2-.67-4-1.33-6-2v-1h-2v-1c-1.333-.33-2.667-0.67-4-1-0.333-.67-0.667-1.33-1-2h-2v-1c-1-.33-2-0.67-3-1-0.333-.67-0.667-1.33-1-2h-2l-5-6h-2c-0.333-.67-0.667-1.33-1-2-1-.67-2-1.33-3-2v-2c-2-1.67-4-3.33-6-5v-2c-0.667-.33-1.333-0.67-2-1v-2c-0.667-.33-1.333-0.67-2-1q-0.5-1.5-1-3h-1c-0.333-1.33-.667-2.67-1-4h-1v-2h-1q-1-3-2-6h-1l-6-21v-10c-1.7-6.09-1-16.27-1-24V129c0-10.841-.518-22.6,2-31V93h1V89h1V86h1V83h1V80h1V77h1q1-3,2-6h1V69h1q0.5-2,1-4l2-1V62h1l1-3,2-1V56l6-5V49l2-1,2-3h2l5-6h2l1-2h2l1-2,3-1V33l4-1V31h2V30l6-2V27h3V26h3V25h3V24h3V23l10-1V21h915ZM2942,860h-2v2h-2c1.14,1.139,0,.4,2,1v2h2v2h2c-1.39,5.123-8.51,9.513-12,13-1.33,1.667-2.67,3.333-4,5q-13.005,12.5-26,25-13.5,14-27,28l-82,81q-87.99,88.485-176,177-95.985,95.49-192,191-39,39.495-78,79-10.995,10.5-22,21-13.005,13.5-26,27h-1c-3.52,3.52-6.63,9.54-12,11-1.13-1.72-.63-1.36-3-2v-2h-2v-2c-2.13-1.21-2.18-2.25-5-3v-2h-2c-0.72-2.76-.28-2.24-3-3v-2h-2c-0.72-2.76-.28-2.24-3-3v-2h-2v-2c-2.13-1.21-2.18-2.25-5-3v-2h-2c-0.72-2.76-.28-2.24-3-3v-2h-2v-2c-2.13-1.21-2.18-2.25-5-3v-2h-2c-0.72-2.76-.28-2.24-3-3v-2h-2c-0.72-2.76-.28-2.24-3-3v-2h-2v-2c-2.13-1.21-2.18-2.25-5-3v-2h-2c-0.72-2.76-.28-2.24-3-3v-2h-2v-2c-2.13-1.21-2.18-2.25-5-3v-2h-2c-0.72-2.76-.28-2.24-3-3v-2h-2v-2c-2.13-1.21-2.18-2.25-5-3v-2c-2.13-1.21-2.18-2.25-5-3v-2h-2c-0.72-2.76-.28-2.24-3-3v-2h-2v-2c-2.13-1.21-2.18-2.25-5-3v-2h-2c-0.72-2.76-.28-2.24-3-3v-2h-2v-2c-2.13-1.21-2.18-2.25-5-3v-2h-2c-0.72-2.76-.28-2.24-3-3v-2h-2c-0.72-2.76-.28-2.24-3-3v-2h-2v-2c-2.13-1.21-2.18-2.25-5-3v-2h-2c-0.72-2.76-.28-2.24-3-3v-2h-2v-2c-2.13-1.21-2.18-2.25-5-3v-2h-2c-0.72-2.76-.28-2.24-3-3v-2h-2v-2c-2.13-1.21-2.18-2.25-5-3v-2c-2.13-1.21-2.18-2.25-5-3v-2h-2c-0.72-2.76-.28-2.24-3-3v-2h-2v-2c-2.13-1.21-2.18-2.25-5-3v-2h-2c-0.72-2.76-.28-2.24-3-3v-2h-2v-2c-2.13-1.21-2.18-2.25-5-3v-2h-2c-0.72-2.76-.28-2.24-3-3v-2h-2c-0.72-2.76-.28-2.24-3-3v-2h-2v-2c-2.13-1.21-2.18-2.25-5-3v-2h-2c-0.72-2.76-.28-2.24-3-3v-2h-2v-2c-2.13-1.21-2.18-2.25-5-3v-2h-2c-0.72-2.76-.28-2.24-3-3v-2h-2v-2c-2.13-1.21-2.18-2.25-5-3v-2c-2.13-1.21-2.18-2.25-5-3v-2h-2c-0.77-1.18.61-.9,1-1q101.49-101.985,203-204,21.495-21,43-42,3.495-4.005,7-8,10.005-9.495,20-19v-2h-1c-2.35,2.06-7.24.14-11,1v1c-2.3.41-5.4-1.77-9-1v1h-1v-1h-4v-1h-1v1h-7v1h-1v-1h-4v-1h-1v1h-2v1c-2-.33-4-0.67-6-1v-1c-1.29-.14-1.66,1.43-4,1-1.39-.26.39-1.25-1-1v1h-2v1c-2.2.49-5.46-1.8-9-1v1c-1.7.3-1.71-.93-2-1h-7v1c-2-.33-4-0.67-6-1-2.81-.05-8.12,1.15-9,1v-1h-7v1c-1.41.15,0.38-.7-1-1h-4v-1h-1v1h-7v1c-2-.67-4-1.33-6-2v1h-2v1c-3.33-.33-6.67-0.67-10-1v-1h-1v1h-11v1c-2.3.41-5.4-1.82-9-1v1c-1.71.3-1.7-.93-2-1h-11v1h-1v-1h-8v1h-1v-1h-4v-1h-1v1c-2.31.35-2.75-1.14-4-1v1c-2.79.54-8.3-1.11-9-1v1h-2v1c-1.71.38-1.73-.94-2-1-3.55-.81-6.57.57-9,1,0.33-.67.67-1.33,1-2h-1c-2.35,2.04-7.24.17-11,1v1c-1-.33-2-0.67-3-1h-6v1h-1v-1h-12v1c-1.78.47-.26-1.65-2-2-0.72.39-7.16,2.15-8,2v-1h-4v-1h-1v1c-2.4.46-2.63-1.05-4-1v1h-11v1c-1.72.33-1.7-.93-2-1h-7v1c-1.33-.33-2.67-0.67-4-1h-9v1h-1v-1h-8v1c-1.72.33-1.69-.92-2-1h-12v-1h-1v1h-1c-1-.33-2-0.67-3-1v1h-2v1c-1.72.4-1.72-.93-2-1-3.54-.82-6.58.57-9,1,0.33-.67.67-1.33,1-2h-1c-2.33,2.04-7.25.19-11,1v1c-2.32.38-5.38-1.76-9-1,0,0-.04,1.31-2,1v-1h-11v1h-1v-1h-8v1h-1v-1h-4v-1c-0.67.33-1.33,0.67-2,1a1.885,1.885,0,0,1-2-1h-1v1c-2.55.58-3.61-.85-5-1v1c-2.39.55-2.63-1.05-4-1v1c-1.33.33-2.67,0.67-4,1v-1h-7s0,1.31-2,1v-1h-11v1c-1-.33-2-0.67-3-1h-6s0.01,1.31-2,1v-1h-12v-1h-1c-0.79.34-7.05,2.15-8,2v-1h-4v-1h-1v1h-3v1h-1v-1h-8v-1c-1,.33-2,0.67-3,1v1c-1.68.36-1.76-.95-2-1h-7v1c-1.33-.33-2.67-0.67-4-1h-18v1c-2.27.38-5.42-1.54-9-1v1h-1v-1h-4v-1c-1.14-.16-1.79,1.22-4,1v-1h-1v1h-3v1h-1v-1c-3.6-.98-6.65,1.36-9,1v-1h-8c-1.4-.18.41-1.05-1-1v1h-2v1c-2.22.47-5.45-1.77-9-1v1c-1.68.28-1.73-.94-2-1h-12v-1h-1v1h-7v1h-1v-1h-4c-1.39-.23.41-1.03-1-1v1h-3v1h-1v-1h-4v-1c-1,.33-2,0.67-3,1-0.67-.33-1.33-0.67-2-1v1h-2v1c-2.21.47-5.45-1.77-9-1v1c-1.33-.33-2.67-0.67-4-1h-18v1c-1.67-.33-3.33-0.67-5-1h-4v1h-1v-1h-4v-1h-1v1h-7v1h-1v-1h-4v-1h-1v1h-3c-1.38.31,0.41,0.86-1,1v-1h-8v-1h-1v1h-2v1c-2.22.47-5.45-1.77-9-1v1c-1.33-.33-2.67-0.67-4-1h-18v1c-1.67-.33-3.33-0.67-5-1h-4v1h-1v-1h-4v-1h-1v1c-2.4.56-2.61-1.01-4-1v1h-3v1h-1v-1h-4v-1c-1.36-.19-2.75,2.31-5,2v-1h-8v-1h-1c-3.17,1.41-6.94.1-11,1v1c-2.28.38-5.41-1.59-9-1v1c-0.67-.33-1.33-0.67-2-1-4.33-.58-9.28.72-12,1v-1c-3.6-.91-6.67,1.39-9,1v-1h-4v-1h-1v1c-2.38.59-2.63-1.05-4-1v1c-1.33.33-2.67,0.67-4,1v-1h-7v1c-2.33.38-5.38-1.78-9-1v1c-1.68.28-1.73-.94-2-1h-11v1c-1-.33-2-0.67-3-1h-6v1h-1v-1h-4v-1h-1v1h-7v1h-1v-1h-4v-1h-1v1h-2v1q-5.505-1.005-11-2c-3.18,1.43-6.92.1-11,1v1c-2.33.39-5.38-1.78-9-1v1c-1.68.28-1.73-.94-2-1-4.06-.92-9.44.74-12,1v-1c-3.33.33-6.67,0.67-10,1v-1h-3v-1c-1.13-.19-1.78,1.28-4,1v-1c-0.67.33-1.33,0.67-2,1h-3v-1c-0.79-.12-1.7,1.19-4,1v-1c-1.35-.19-2.75,2.3-5,2v-1h-7v1h-2v-1h-11v1c-1.68.28-1.74-.94-2-1h-7v1h-1v-1c-4.21-.99-10.27.43-13,1v-2c-3,.67-6,1.33-9,2v-1h-4v-1c-1,.33-2,0.67-3,1-0.67-.33-1.33-0.67-2-1v1h-8v-1h-1v1h-2v1c-1.69.36-1.75-.95-2-1h-7v1c-2-.33-4-0.67-6-1-0.87-2.32-1.02-4.41-1-8-1.95-3.02,1.37-15.91,0-24h-1v-1h1V975h-1c0.33-.667.67-1.333,1-2a116.293,116.293,0,0,0,0-21c-0.33-.667-0.67-1.333-1-2h1V934h-1c0.33-.667.67-1.333,1-2,0.91-7-.86-19.232,0-23V893h-1v-1h1V876h-1c0.33-.667.67-1.333,1-2a116.293,116.293,0,0,0,0-21c-0.33-.667-0.67-1.333-1-2h1V835h-1c0.33-.667.67-1.333,1-2,0.4-3.327-1.26-5.285-1-7h1V813c-0.33-1-.67-2-1-3h1V794h-1c-0.05-.406.95-2.162,1-4V777c-0.24-1.394-1.03.414-1-1h1v-5c-0.33-.667-0.67-1.333-1-2h1V753h-1v-1h1V737c-0.97-9.1-.01-23.683,0-36,1.67-.333,3.33-0.667,5-1v1h1a1.76,1.76,0,0,1,2-1s0.66,1.413,3,1c0,0,.18-1.234,2-1v1h1l3-1v1l4-1v1c2.42,0.451,2.58-.971,4-1s-0.4.787,1,1a1.662,1.662,0,0,0,2-1c1.87-.257,2,1,2,1a2.684,2.684,0,0,0,3-1,1.549,1.549,0,0,1,2,1l4-1v1c3.69,0.861,6.48-1.061,9-1v1c1.43-.084,1.58-1.5,4-1,0,0,.6,1.461,3,1,0,0,.22-1.061,2-1v1c1.43-.092,1.59-1.515,4-1,0,0,.55,1.389,3,1v-1h1a1.766,1.766,0,0,0,2,1s0.64-1.381,3-1c1.4,0.225-.4,1.171,1,1a1.757,1.757,0,0,1,2-1v1l9-1v1c1.67-.333,3.33-0.667,5-1v1l4-1v1l4-1v1c2.42,0.448,2.58-.972,4-1s-0.4.79,1,1l3-1h1v1a2.678,2.678,0,0,0,3-1,1.557,1.557,0,0,1,2,1l4-1v1l9-1v1c1.44-.087,1.58-1.456,4-1,0,0,.12,1.272,2,1v-1h3c1.39,0.236-.4,1.2,1,1a2.738,2.738,0,0,1,3-1s0.52,1.39,3,1v-1l3,1v-1a1.573,1.573,0,0,1,2,1l3-1c1.41,0.01-.39.743,1,1a2.678,2.678,0,0,0,3-1l3,1h1v-1c1.86-.261,2,1,2,1a2.691,2.691,0,0,0,3-1,1.558,1.558,0,0,1,2,1l4-1v1h7v-1l4,1v-1c1.67,0.333,3.33.667,5,1,0,0,.09-1.259,2-1v1h1a2.746,2.746,0,0,1,3-1v1h3v-1l3,1s0.65-1.385,3-1v1h1a1.737,1.737,0,0,1,2-1s0.16,1.132,2,1c1.45-.1,1.57-1.393,4-1v1l3-1s0.65,1.412,3,1v-1a1.582,1.582,0,0,1,2,1l4-1a1.712,1.712,0,0,0,2,1v-1l4,1,3-1a1.731,1.731,0,0,0,2,1,1.7,1.7,0,0,1,2-1,2.826,2.826,0,0,0,3,1s0.18-1.24,2-1v1h1l3-1v1c2.24,0.413,3-1,3-1a1.59,1.59,0,0,1,2,1,1.6,1.6,0,0,0,2-1l4,1a1.7,1.7,0,0,1,2-1v1c1.67-.333,3.33-0.667,5-1v1c1.43-.083,1.59-1.5,4-1,0,0,.59,1.457,3,1v-1h1c0.67,0.333,1.33.667,2,1v-1h3v1l3-1v1c2.42,0.471,2.56-.87,4-1a2.338,2.338,0,0,1,2,1c0.67-.333,1.33-0.667,2-1,1.45,0.094,1.57,1.425,4,1,0,0,.19-1.256,2-1a1.7,1.7,0,0,0,2,1,1.674,1.674,0,0,1,2-1v1c3.64,0.841,6.62-1.333,9-1v1l4-1a2.84,2.84,0,0,0,3,1s0.18-1.248,2-1v1a1.648,1.648,0,0,0,2-1c1.67,0.333,3.33.667,5,1,0,0,.08-1.257,2-1v1c1.43-.068,1.59-1.5,4-1,0,0,.13,1.056,2,1,1.21-.74-0.4-1.207,1-1a2.707,2.707,0,0,0,3,1v-1c2.31-.516,2.77,1.2,4,1v-1l16,1,4-1a1.67,1.67,0,0,0,2,1,1.692,1.692,0,0,1,2-1,2.833,2.833,0,0,0,3,1s0.16-1.251,2-1v1h1l3-1v1c1.67-.333,3.33-0.667,5-1v1l3-1c1.41-.013-0.4.787,1,1l3-1c1.41,0.008-.39.748,1,1,2.4,0.435,3-1,3-1l3,1v-1h3v1c1.67-.333,3.33-0.667,5-1v1c1.43-.076,1.59-1.5,4-1,0,0,.12,1.059,2,1v-1h1a2.749,2.749,0,0,0,3,1s0.55-1.391,3-1v1l3-1v1l9-1v1h7v-1l4,1a1.691,1.691,0,0,1,2-1v1c2.24,0.415,3-1,3-1l3,1h1v-1c1.86-.258,2,1,2,1,2.42,0.449,2.58-.972,4-1l3,1v-1l4,1v-1c1.85-.257,2,1,2,1,1.67-.333,3.33-0.667,5-1v1h1v-1c2.42-.362,3,1,3,1a2.862,2.862,0,0,0,3-1l3,1a2.652,2.652,0,0,1,3-1v1l9-1v1l3-1s0.65,1.411,3,1v-1l9,1v-1l3,1c1.41,0-.4-0.789,1-1a1.587,1.587,0,0,1,2,1l3-1h1v1c2.24,0.413,3-1,3-1l3,1,3-1v1c2.4,0.431,3-1,3-1,1.98-.4,1.29.586,2,1,1.43-.075,1.59-1.5,4-1,0,0,.13,1.056,2,1,1.21-.733-0.4-1.208,1-1v1c2.44,0.361,2.53-.85,4-1,2.02-.207,1.21.565,2,1,1.44-.087,1.58-1.461,4-1,0,0,.11,1.266,2,1a2.11,2.11,0,0,1,2-1c0.67,0.333,1.33.667,2,1a1.75,1.75,0,0,1,2-1v1c2.44,0.556,4.22-1.1,5-1v1l3-1h1v1l3-1h1v1a2.68,2.68,0,0,0,3-1l3,1,3-1v1c1.67-.333,3.33-0.667,5-1v1l4-1v1l4-1v1c2.42,0.445,2.58-.972,4-1h1v1a1.647,1.647,0,0,0,2-1c1.84-.262,2,1,2,1,2.38,0.427,3-1,3-1l3,1a2.608,2.608,0,0,1,3-1v1l9-1v1l3-1v1a2.836,2.836,0,0,0,3-1h3v1c1.41,0.115-.41-0.861,1-1l3,1,4-1v1l4-1v1l3-1h1v1c2.24,0.416,3-1,3-1l3,1h1v-1c1.86-.259,2,1,2,1,2.24,0.414,3-1,3-1a1.555,1.555,0,0,1,2,1l4-1v1h7v-1l3,1v-1c1.67,0.333,3.33.667,5,1v-1h3v1c1.41-.076-0.4-0.8,1-1,2.48-.354,3,1,3,1h3v-1h1v1c1.96,0.191,2-1,2-1h3v1h1v-1l3,1,4-1v1a1.655,1.655,0,0,0,2-1c1.67,0.333,3.33.667,5,1,0,0,.18-1.242,2-1v1l3-1c1.41-.013-0.4.788,1,1l3-1h1v1c2.24,0.412,3-1,3-1l3,1,3-1v1c2.39,0.43,3-1,3-1l3,1v-1l9,1v-1c2.31-.553,2.77,1.2,4,1a2.668,2.668,0,0,1,3-1s0.11,1.264,2,1a2.11,2.11,0,0,1,2-1c0.67,0.333,1.33.667,2,1a1.783,1.783,0,0,1,2-1v1c2.24,0.448,3-1,3-1a1.58,1.58,0,0,1,2,1,1.6,1.6,0,0,0,2-1l4,1a1.711,1.711,0,0,1,2-1v1c1.67-.333,3.33-0.667,5-1v1l4-1v1a2.678,2.678,0,0,0,3-1,1.557,1.557,0,0,1,2,1,1.683,1.683,0,0,0,2-1c2.08-.273,2,1,2,1h7v-1l9,1v-1l3,1v-1c2.47-.372,3,1,3,1h3v-1h1v1l3-1,3,1v-1l3,1c1.96,0.133,2-1,2-1,2.34-.492,2.72,1.152,4,1a1.771,1.771,0,0,1,2-1s0.65,1.412,3,1v-1l3,1c1.41,0-.4-0.79,1-1a1.587,1.587,0,0,1,2,1l3-1h1v1c2.24,0.413,3-1,3-1l3,1,3-1v1c1.67-.333,3.33-0.667,5-1v1l4-1v1c2.26,0.416,3-1,3-1a1.623,1.623,0,0,1,2,1c1.87,0.258,2-1,2-1l3,1a2.879,2.879,0,0,1,3-1v1c1.67-.333,3.33-0.667,5-1v1h1v-1c2.43-.35,3,1,3,1,1.67-.333,3.33-0.667,5-1v1h1v-1h3v1h1v-1l3,1,4-1v1h1c1.41,0.009-.4-0.8,1-1,1.86-.26,2,1,2,1,2.24,0.412,3-1,3-1a1.556,1.556,0,0,1,2,1l4-1v1c3.65,0.842,6.61-1.319,9-1v1l4-1a2.769,2.769,0,0,0,3,1v-1l9,1v-1l3,1v-1h3v1c0.67-.333,1.33-0.667,2-1,1.44,0.091,1.58,1.476,4,1,0,0,.62-1.388,3-1v1h1a1.758,1.758,0,0,1,2-1v1l9-1v1l4-1v1c2.24,0.41,3-1,3-1a1.582,1.582,0,0,1,2,1,1.648,1.648,0,0,0,2-1c1.85-.263,2,1,2,1,2.42,0.443,2.58-.973,4-1l3,1v-1c1.67,0.333,3.33.667,5,1v-1l4,1a1.725,1.725,0,0,1,2-1v1h1c1.41,0.015-.4-0.8,1-1,1.84-.263,2,1,2,1,2.38,0.429,3-1,3-1l3,1a2.584,2.584,0,0,1,3-1v1a2.854,2.854,0,0,0,3-1c1.98-.391,1.29.575,2,1,1.41-.106-0.4-0.773,1-1h3v1h1v-1c1.92-.185,2,1,2,1,2.3,0.457,3-1,3-1,2.31-.421,2.65.556,4,1L2130,497q-21.495-21-43-42-3.495-4-7-8-10.005-9.5-20-19v-2c1.72-1.127,1.36-.633,2-3h2v-2h2c1.21-2.128,2.25-2.177,3-5h2v-2c2.76-.723,2.24-0.279,3-3h2v-2c2.76-.723,2.24-0.279,3-3h2v-2h2c1.21-2.128,2.25-2.177,3-5h2v-2c2.76-.723,2.24-0.279,3-3h2v-2h2c1.21-2.128,2.25-2.177,3-5h2v-2c2.76-.723,2.24-0.279,3-3h2v-2c2.76-.723,2.24-0.279,3-3h2v-2h2c1.21-2.128,2.25-2.177,3-5h2v-2c2.76-.723,2.24-0.279,3-3h2v-2h2c1.21-2.128,2.25-2.177,3-5h2v-2c2.76-.723,2.24-0.279,3-3h2v-2h2c1.21-2.128,2.25-2.177,3-5h2c1.21-2.128,2.25-2.177,3-5h2v-2c2.76-.723,2.24-0.279,3-3h2v-2h2c1.21-2.128,2.25-2.177,3-5h2v-2c2.76-.723,2.24-0.279,3-3h2v-2h2c1.21-2.128,2.25-2.177,3-5h2v-2c2.76-.723,2.24-0.279,3-3h2v-2c2.76-.723,2.24-0.279,3-3h2v-2h2c1.21-2.128,2.25-2.177,3-5h2v-2c2.76-.723,2.24-0.279,3-3h2v-2h2c1.21-2.128,2.25-2.177,3-5h2v-2c2.76-.723,2.24-0.279,3-3h2v-2h2c1.21-2.128,2.25-2.177,3-5h2c1.21-2.128,2.25-2.177,3-5h2v-2c2.76-.723,2.24-0.279,3-3h2v-2h2c1.21-2.128,2.25-2.177,3-5h2v-2c2.76-.723,2.24-0.279,3-3h2v-2h2c1.21-2.128,2.25-2.177,3-5h2v-2c2.76-.723,2.24-0.279,3-3h2v-2c2.76-.723,2.24-0.279,3-3h2v-2h2c1.21-2.128,2.25-2.177,3-5h2v-2c2.76-.723,2.24-0.279,3-3h2v-2h2c1.21-2.128,2.25-2.177,3-5h2v-2c2.76-.723,2.24-0.279,3-3h2v-2h2c1.21-2.128,2.25-2.177,3-5h2c1.21-2.128,2.25-2.177,3-5h2v-2h1v1c5.93,3.452,10.23,10.231,15,15,1.67,1.333,3.33,2.667,5,4q13.995,14.5,28,29l27,26,79,80,191,190q74.985,75.492,150,151,45,44.5,90,89,14.505,15,29,30l27,26,3,4c3.67,3.669,11.18,7.954,12,14C2941.86,859.139,2942.6,858,2942,860Z"/>
</svg>
